<?xml version="1.0" encoding="utf-8" standalone="no"?>
<!DOCTYPE svg PUBLIC "-//W3C//DTD SVG 1.1//EN"
  "http://www.w3.org/Graphics/SVG/1.1/DTD/svg11.dtd">
<svg xmlns:xlink="http://www.w3.org/1999/xlink" width="624.68495pt" height="566.5575pt" viewBox="0 0 624.68495 566.5575" xmlns="http://www.w3.org/2000/svg" version="1.1">
 <metadata>
  <rdf:RDF xmlns:dc="http://purl.org/dc/elements/1.1/" xmlns:cc="http://creativecommons.org/ns#" xmlns:rdf="http://www.w3.org/1999/02/22-rdf-syntax-ns#">
   <cc:Work>
    <dc:type rdf:resource="http://purl.org/dc/dcmitype/StillImage"/>
    <dc:date>2025-07-25T08:24:15.220464</dc:date>
    <dc:format>image/svg+xml</dc:format>
    <dc:creator>
     <cc:Agent>
      <dc:title>Matplotlib v3.9.2, https://matplotlib.org/</dc:title>
     </cc:Agent>
    </dc:creator>
   </cc:Work>
  </rdf:RDF>
 </metadata>
 <defs>
  <style type="text/css">*{stroke-linejoin: round; stroke-linecap: butt}</style>
 </defs>
 <g id="figure_1">
  <g id="patch_1">
   <path d="M 0 566.5575 
L 624.68495 566.5575 
L 624.68495 0 
L 0 0 
z
" style="fill: #ffffff"/>
  </g>
  <g id="axes_1">
   <g id="patch_2">
    <path d="M 275.491969 91.3575 
C 242.282304 91.3575 209.550559 99.310975 180.043914 114.550387 
C 150.537269 129.7898 125.104983 151.876531 105.88159 178.956837 
L 190.686779 239.157169 
C 200.298476 225.617016 213.014619 214.57365 227.767941 206.953944 
C 242.521264 199.334237 258.887137 195.3575 275.491969 195.3575 
z
" style="fill: #2e86c1; stroke: #ffffff; stroke-linejoin: miter"/>
   </g>
   <g id="patch_3">
    <path d="M 105.88159 178.956837 
C 87.155529 205.336545 74.839446 235.72481 69.915463 267.698373 
C 64.991481 299.671936 67.594058 332.357699 77.515658 363.149195 
L 176.503813 331.253347 
C 171.543013 315.8576 170.241725 299.514718 172.703716 283.527936 
C 175.165707 267.541155 181.323749 252.347023 190.686779 239.157169 
z
" style="fill: #f39c12; stroke: #ffffff; stroke-linejoin: miter"/>
   </g>
   <g id="patch_4">
    <path d="M 77.515658 363.149195 
C 87.173939 393.123486 103.514595 420.516583 125.301315 443.255962 
C 147.088034 465.995341 173.75715 483.492687 203.290912 494.424174 
L 239.39144 396.890837 
C 224.624559 391.425094 211.290002 382.676421 200.396642 371.306731 
C 189.503282 359.937042 181.332954 346.240493 176.503813 331.253347 
z
" style="fill: #27ae60; stroke: #ffffff; stroke-linejoin: miter"/>
   </g>
   <g id="patch_5">
    <path d="M 203.290912 494.424174 
C 230.412278 504.462749 259.331518 508.735582 288.197086 506.969109 
C 317.062655 505.202635 345.245082 497.435375 370.939997 484.164626 
L 323.215983 391.761063 
C 310.368525 398.396438 296.277312 402.280067 281.844527 403.163304 
C 267.411743 404.046541 252.952123 401.910124 239.39144 396.890837 
z
" style="fill: #e74c3c; stroke: #ffffff; stroke-linejoin: miter"/>
   </g>
   <g id="patch_6">
    <path d="M 370.939997 484.164626 
C 392.834979 472.856443 412.547146 457.746715 429.15541 439.541475 
C 445.763674 421.336234 459.005257 400.323526 468.261419 377.48521 
L 371.876694 338.421355 
C 367.248613 349.840513 360.627821 360.346867 352.323689 369.449487 
C 344.019557 378.552108 334.163474 386.106972 323.215983 391.761063 
z
" style="fill: #9b59b6; stroke: #ffffff; stroke-linejoin: miter"/>
   </g>
   <g id="patch_7">
    <path d="M 468.261419 377.48521 
C 476.876244 356.229306 481.916346 333.694142 483.17735 310.793519 
C 484.438353 287.892896 481.902979 264.940595 475.674038 242.867332 
L 375.583003 271.112416 
C 378.697474 282.149048 379.965161 293.625198 379.334659 305.07551 
C 378.704157 316.525821 376.184106 327.793403 371.876694 338.421355 
z
" style="fill: #f1c40f; stroke: #ffffff; stroke-linejoin: miter"/>
   </g>
   <g id="patch_8">
    <path d="M 475.674038 242.867332 
C 471.064705 226.533413 464.473493 210.824872 456.047543 196.092383 
C 447.621593 181.359894 437.424075 167.713907 425.682636 155.459052 
L 350.587302 227.408276 
C 356.458022 233.535703 361.556781 240.358697 365.769756 247.724941 
C 369.982731 255.091186 373.278337 262.945456 375.583003 271.112416 
z
" style="fill: #e67e22; stroke: #ffffff; stroke-linejoin: miter"/>
   </g>
   <g id="patch_9">
    <path d="M 425.682636 155.459052 
C 415.705849 145.046012 404.67312 135.698715 392.762593 127.568092 
C 380.852067 119.43747 368.128197 112.567519 354.796437 107.069171 
L 315.144203 203.213336 
C 321.810083 205.96251 328.172018 209.397485 334.127281 213.462796 
C 340.082544 217.528108 345.598909 222.201756 350.587302 227.408276 
z
" style="fill: #1abc9c; stroke: #ffffff; stroke-linejoin: miter"/>
   </g>
   <g id="patch_10">
    <path d="M 354.796437 107.069171 
C 343.82051 102.542427 332.477125 98.963752 320.890619 96.372371 
C 309.304113 93.780991 297.516976 92.186408 285.658409 91.606102 
L 280.575189 195.481801 
C 286.504472 195.771954 292.398041 196.569245 298.191294 197.864936 
C 303.984547 199.160626 309.65624 200.949964 315.144203 203.213336 
z
" style="fill: #34495e; stroke: #ffffff; stroke-linejoin: miter"/>
   </g>
   <g id="patch_11">
    <path d="M 285.658409 91.606102 
C 283.965339 91.52325 282.27132 91.461099 280.57673 91.41966 
C 278.882141 91.378222 277.187109 91.3575 275.492013 91.3575 
L 275.491991 195.3575 
C 276.339539 195.3575 277.187055 195.367861 278.03435 195.38858 
C 278.881644 195.409299 279.728654 195.440375 280.575189 195.481801 
z
" style="fill: #d35400; stroke: #ffffff; stroke-linejoin: miter"/>
   </g>
   <g id="patch_12">
    <path d="M 275.491969 444.9575 
C 314.10554 444.9575 351.142798 429.616165 378.446716 402.312247 
C 405.750634 375.008329 421.091969 337.971071 421.091969 299.3575 
C 421.091969 260.743929 405.750634 223.706671 378.446716 196.402753 
C 351.142798 169.098835 314.10554 153.7575 275.491969 153.7575 
C 236.878397 153.7575 199.841139 169.098835 172.537221 196.402753 
C 145.233303 223.706671 129.891969 260.743929 129.891969 299.3575 
C 129.891969 337.971071 145.233303 375.008329 172.537221 402.312247 
C 199.841139 429.616165 236.878397 444.9575 275.491969 444.9575 
z
" clip-path="url(#pf809204d58)" style="fill: #ffffff"/>
   </g>
   <g id="matplotlib.axis_1"/>
   <g id="matplotlib.axis_2"/>
   <g id="text_1">
    <!-- Common People -->
    <g transform="translate(79.841296 98.829051) scale(0.1 -0.1)">
     <defs>
      <path id="DejaVuSerif-Bold-43" d="M 4769 1331 
Q 4584 609 4106 259 
Q 3628 -91 2822 -91 
Q 1641 -91 955 561 
Q 269 1213 269 2328 
Q 269 3447 955 4098 
Q 1641 4750 2822 4750 
Q 3238 4750 3688 4650 
Q 4138 4550 4641 4347 
L 4641 3200 
L 4244 3200 
Q 4122 3788 3800 4080 
Q 3478 4372 2950 4372 
Q 2269 4372 1937 3870 
Q 1606 3369 1606 2328 
Q 1606 1288 1937 788 
Q 2269 288 2956 288 
Q 3422 288 3717 547 
Q 4013 806 4147 1331 
L 4769 1331 
z
" transform="scale(0.015625)"/>
      <path id="DejaVuSerif-Bold-6f" d="M 2138 263 
Q 2488 263 2630 563 
Q 2772 863 2772 1663 
Q 2772 2463 2631 2761 
Q 2491 3059 2138 3059 
Q 1784 3059 1640 2757 
Q 1497 2456 1497 1663 
Q 1497 869 1640 566 
Q 1784 263 2138 263 
z
M 2138 -91 
Q 1259 -91 761 376 
Q 263 844 263 1663 
Q 263 2484 761 2948 
Q 1259 3413 2138 3413 
Q 3019 3413 3516 2948 
Q 4013 2484 4013 1663 
Q 4013 844 3514 376 
Q 3016 -91 2138 -91 
z
" transform="scale(0.015625)"/>
      <path id="DejaVuSerif-Bold-6d" d="M 3884 2778 
Q 4116 3109 4384 3261 
Q 4653 3413 5013 3413 
Q 5584 3413 5867 3089 
Q 6150 2766 6150 2113 
L 6150 378 
L 6625 378 
L 6625 0 
L 4647 0 
L 4647 378 
L 5044 378 
L 5044 1947 
Q 5044 2569 4948 2731 
Q 4853 2894 4594 2894 
Q 4300 2894 4137 2667 
Q 3975 2441 3975 2022 
L 3975 378 
L 4372 378 
L 4372 0 
L 2472 0 
L 2472 378 
L 2869 378 
L 2869 1947 
Q 2869 2569 2772 2731 
Q 2675 2894 2419 2894 
Q 2122 2894 1959 2667 
Q 1797 2441 1797 2022 
L 1797 378 
L 2194 378 
L 2194 0 
L 219 0 
L 219 378 
L 691 378 
L 691 2944 
L 219 2944 
L 219 3322 
L 1797 3322 
L 1797 2853 
Q 1991 3144 2241 3278 
Q 2491 3413 2834 3413 
Q 3241 3413 3494 3258 
Q 3747 3103 3884 2778 
z
" transform="scale(0.015625)"/>
      <path id="DejaVuSerif-Bold-6e" d="M 219 0 
L 219 378 
L 691 378 
L 691 2944 
L 219 2944 
L 219 3322 
L 1797 3322 
L 1797 2853 
Q 1997 3150 2253 3281 
Q 2509 3413 2900 3413 
Q 3459 3413 3745 3083 
Q 4031 2753 4031 2113 
L 4031 378 
L 4506 378 
L 4506 0 
L 2522 0 
L 2522 378 
L 2925 378 
L 2925 2144 
Q 2925 2566 2817 2730 
Q 2709 2894 2444 2894 
Q 2109 2894 1953 2648 
Q 1797 2403 1797 1869 
L 1797 378 
L 2203 378 
L 2203 0 
L 219 0 
z
" transform="scale(0.015625)"/>
      <path id="DejaVuSerif-Bold-20" transform="scale(0.015625)"/>
      <path id="DejaVuSerif-Bold-50" d="M 300 0 
L 300 378 
L 897 378 
L 897 4288 
L 300 4288 
L 300 4666 
L 2956 4666 
Q 3734 4666 4193 4295 
Q 4653 3925 4653 3303 
Q 4653 2678 4192 2304 
Q 3731 1931 2956 1931 
L 2100 1931 
L 2100 378 
L 2853 378 
L 2853 0 
L 300 0 
z
M 2100 2309 
L 2450 2309 
Q 2856 2309 3098 2579 
Q 3341 2850 3341 3303 
Q 3341 3753 3100 4020 
Q 2859 4288 2450 4288 
L 2100 4288 
L 2100 2309 
z
" transform="scale(0.015625)"/>
      <path id="DejaVuSerif-Bold-65" d="M 2566 1875 
Q 2566 2531 2444 2795 
Q 2322 3059 2028 3059 
Q 1744 3059 1620 2800 
Q 1497 2541 1497 1931 
L 1497 1875 
L 2566 1875 
z
M 3781 1503 
L 1497 1503 
L 1497 1478 
Q 1497 834 1690 548 
Q 1884 263 2316 263 
Q 2675 263 2897 453 
Q 3119 644 3181 1006 
L 3700 1006 
Q 3566 441 3166 175 
Q 2766 -91 2047 -91 
Q 1184 -91 723 364 
Q 263 819 263 1663 
Q 263 2488 734 2950 
Q 1206 3413 2047 3413 
Q 2872 3413 3312 2927 
Q 3753 2441 3781 1503 
z
" transform="scale(0.015625)"/>
      <path id="DejaVuSerif-Bold-70" d="M 1728 1825 
L 1728 1497 
Q 1728 916 1876 656 
Q 2025 397 2356 397 
Q 2697 397 2836 672 
Q 2975 947 2975 1663 
Q 2975 2378 2836 2651 
Q 2697 2925 2356 2925 
Q 2025 2925 1876 2665 
Q 1728 2406 1728 1825 
z
M 622 2944 
L 147 2944 
L 147 3322 
L 1728 3322 
L 1728 2900 
Q 1869 3159 2106 3286 
Q 2344 3413 2694 3413 
Q 3403 3413 3811 2945 
Q 4219 2478 4219 1663 
Q 4219 847 3811 378 
Q 3403 -91 2694 -91 
Q 2344 -91 2106 36 
Q 1869 163 1728 422 
L 1728 -953 
L 2241 -953 
L 2241 -1331 
L 147 -1331 
L 147 -953 
L 622 -953 
L 622 2944 
z
" transform="scale(0.015625)"/>
      <path id="DejaVuSerif-Bold-6c" d="M 1797 378 
L 2272 378 
L 2272 0 
L 219 0 
L 219 378 
L 691 378 
L 691 4488 
L 219 4488 
L 219 4863 
L 1797 4863 
L 1797 378 
z
" transform="scale(0.015625)"/>
     </defs>
     <use xlink:href="#DejaVuSerif-Bold-43"/>
     <use xlink:href="#DejaVuSerif-Bold-6f" x="79.589844"/>
     <use xlink:href="#DejaVuSerif-Bold-6d" x="146.289062"/>
     <use xlink:href="#DejaVuSerif-Bold-6d" x="252.099609"/>
     <use xlink:href="#DejaVuSerif-Bold-6f" x="357.910156"/>
     <use xlink:href="#DejaVuSerif-Bold-6e" x="424.609375"/>
     <use xlink:href="#DejaVuSerif-Bold-20" x="497.314453"/>
     <use xlink:href="#DejaVuSerif-Bold-50" x="532.128906"/>
     <use xlink:href="#DejaVuSerif-Bold-65" x="604.699219"/>
     <use xlink:href="#DejaVuSerif-Bold-6f" x="668.322266"/>
     <use xlink:href="#DejaVuSerif-Bold-70" x="735.021484"/>
     <use xlink:href="#DejaVuSerif-Bold-6c" x="804.943359"/>
     <use xlink:href="#DejaVuSerif-Bold-65" x="842.931641"/>
    </g>
   </g>
   <g id="text_2">
    <!-- 15.2% -->
    <g style="fill: #ffffff" transform="translate(179.12581 144.754892) scale(0.09 -0.09)">
     <defs>
      <path id="DejaVuSerif-Bold-31" d="M 878 0 
L 878 378 
L 1753 378 
L 1753 4153 
L 781 3578 
L 781 4044 
L 1953 4750 
L 2938 4750 
L 2938 378 
L 3816 378 
L 3816 0 
L 878 0 
z
" transform="scale(0.015625)"/>
      <path id="DejaVuSerif-Bold-35" d="M 3609 4666 
L 3609 3847 
L 1113 3847 
L 1113 2822 
Q 1319 2981 1572 3062 
Q 1825 3144 2106 3144 
Q 2969 3144 3469 2708 
Q 3969 2272 3969 1522 
Q 3969 759 3469 334 
Q 2969 -91 2069 -91 
Q 1688 -91 1311 -28 
Q 934 34 525 166 
L 525 1184 
L 900 1184 
Q 919 725 1139 500 
Q 1359 275 1791 275 
Q 2250 275 2472 583 
Q 2694 891 2694 1522 
Q 2694 2144 2476 2451 
Q 2259 2759 1819 2759 
Q 1581 2759 1395 2661 
Q 1209 2563 1050 2356 
L 738 2356 
L 738 4666 
L 3609 4666 
z
" transform="scale(0.015625)"/>
      <path id="DejaVuSerif-Bold-2e" d="M 519 506 
Q 519 750 694 925 
Q 869 1100 1113 1100 
Q 1359 1100 1534 925 
Q 1709 750 1709 506 
Q 1709 259 1534 84 
Q 1359 -91 1113 -91 
Q 869 -91 694 84 
Q 519 259 519 506 
z
" transform="scale(0.015625)"/>
      <path id="DejaVuSerif-Bold-32" d="M 844 3513 
L 469 3513 
L 469 4519 
Q 850 4634 1223 4692 
Q 1597 4750 1978 4750 
Q 2869 4750 3367 4386 
Q 3866 4022 3866 3372 
Q 3866 2909 3591 2542 
Q 3316 2175 2541 1672 
L 1241 819 
L 3450 819 
L 3450 1369 
L 3878 1369 
L 3878 0 
L 428 0 
L 428 763 
L 1119 1241 
Q 2003 1850 2297 2278 
Q 2591 2706 2591 3278 
Q 2591 3819 2367 4101 
Q 2144 4384 1716 4384 
Q 1347 4384 1125 4161 
Q 903 3938 844 3513 
z
" transform="scale(0.015625)"/>
      <path id="DejaVuSerif-Bold-25" d="M 1381 4434 
Q 1181 4434 1093 4217 
Q 1006 4000 1006 3481 
Q 1006 2959 1093 2740 
Q 1181 2522 1381 2522 
Q 1584 2522 1671 2740 
Q 1759 2959 1759 3481 
Q 1759 4000 1671 4217 
Q 1584 4434 1381 4434 
z
M 1381 4750 
Q 1978 4750 2295 4423 
Q 2613 4097 2613 3481 
Q 2613 2866 2295 2537 
Q 1978 2209 1381 2209 
Q 788 2209 470 2537 
Q 153 2866 153 3481 
Q 153 4097 470 4423 
Q 788 4750 1381 4750 
z
M 4231 4750 
L 4769 4750 
L 1850 -91 
L 1313 -91 
L 4231 4750 
z
M 4697 2450 
Q 5294 2450 5609 2123 
Q 5925 1797 5925 1184 
Q 5925 569 5609 239 
Q 5294 -91 4697 -91 
Q 4103 -91 3786 239 
Q 3469 569 3469 1184 
Q 3469 1797 3786 2123 
Q 4103 2450 4697 2450 
z
M 4697 2138 
Q 4494 2138 4406 1920 
Q 4319 1703 4319 1184 
Q 4319 663 4408 444 
Q 4497 225 4697 225 
Q 4900 225 4987 444 
Q 5075 663 5075 1184 
Q 5075 1703 4987 1920 
Q 4900 2138 4697 2138 
z
" transform="scale(0.015625)"/>
     </defs>
     <use xlink:href="#DejaVuSerif-Bold-31"/>
     <use xlink:href="#DejaVuSerif-Bold-35" x="69.580078"/>
     <use xlink:href="#DejaVuSerif-Bold-2e" x="139.160156"/>
     <use xlink:href="#DejaVuSerif-Bold-32" x="173.974609"/>
     <use xlink:href="#DejaVuSerif-Bold-25" x="243.554688"/>
    </g>
   </g>
   <g id="text_3">
    <!-- Villains -->
    <g transform="translate(7.2 267.291835) scale(0.1 -0.1)">
     <defs>
      <path id="DejaVuSerif-Bold-56" d="M 5056 4666 
L 5056 4288 
L 4666 4288 
L 2906 0 
L 2163 0 
L 403 4288 
L -38 4288 
L -38 4666 
L 2150 4666 
L 2150 4288 
L 1697 4288 
L 2956 1197 
L 4225 4288 
L 3669 4288 
L 3669 4666 
L 5056 4666 
z
" transform="scale(0.015625)"/>
      <path id="DejaVuSerif-Bold-69" d="M 588 4263 
Q 588 4516 763 4689 
Q 938 4863 1191 4863 
Q 1438 4863 1611 4689 
Q 1784 4516 1784 4263 
Q 1784 4016 1611 3842 
Q 1438 3669 1191 3669 
Q 938 3669 763 3841 
Q 588 4013 588 4263 
z
M 1797 378 
L 2272 378 
L 2272 0 
L 219 0 
L 219 378 
L 691 378 
L 691 2944 
L 219 2944 
L 219 3322 
L 1797 3322 
L 1797 378 
z
" transform="scale(0.015625)"/>
      <path id="DejaVuSerif-Bold-61" d="M 3525 2041 
L 3525 378 
L 4000 378 
L 4000 0 
L 2419 0 
L 2419 422 
Q 2200 159 1931 34 
Q 1663 -91 1319 -91 
Q 809 -91 536 182 
Q 263 456 263 966 
Q 263 1525 655 1803 
Q 1047 2081 1838 2081 
L 2419 2081 
L 2419 2278 
Q 2419 2681 2228 2873 
Q 2038 3066 1638 3066 
Q 1306 3066 1126 2930 
Q 947 2794 872 2484 
L 519 2484 
L 519 3200 
Q 816 3306 1134 3359 
Q 1453 3413 1806 3413 
Q 2697 3413 3111 3081 
Q 3525 2750 3525 2041 
z
M 2419 1044 
L 2419 1709 
L 2003 1709 
Q 1694 1709 1528 1540 
Q 1363 1372 1363 1056 
Q 1363 741 1483 584 
Q 1603 428 1850 428 
Q 2106 428 2262 597 
Q 2419 766 2419 1044 
z
" transform="scale(0.015625)"/>
      <path id="DejaVuSerif-Bold-73" d="M 300 97 
L 300 1025 
L 653 1025 
Q 697 653 931 458 
Q 1166 263 1569 263 
Q 1906 263 2086 380 
Q 2266 497 2266 716 
Q 2266 916 2152 1025 
Q 2038 1134 1709 1216 
L 1253 1331 
Q 738 1459 506 1698 
Q 275 1938 275 2344 
Q 275 2884 650 3148 
Q 1025 3413 1806 3413 
Q 2100 3413 2433 3364 
Q 2766 3316 3169 3213 
L 3169 2375 
L 2816 2375 
Q 2788 2716 2573 2887 
Q 2359 3059 1959 3059 
Q 1622 3059 1448 2951 
Q 1275 2844 1275 2638 
Q 1275 2469 1375 2372 
Q 1475 2275 1734 2209 
L 2188 2094 
Q 2841 1928 3091 1684 
Q 3341 1441 3341 1006 
Q 3341 444 2939 176 
Q 2538 -91 1691 -91 
Q 1381 -91 1034 -44 
Q 688 3 300 97 
z
" transform="scale(0.015625)"/>
     </defs>
     <use xlink:href="#DejaVuSerif-Bold-56"/>
     <use xlink:href="#DejaVuSerif-Bold-69" x="75.837891"/>
     <use xlink:href="#DejaVuSerif-Bold-6c" x="113.826172"/>
     <use xlink:href="#DejaVuSerif-Bold-6c" x="151.814453"/>
     <use xlink:href="#DejaVuSerif-Bold-61" x="189.802734"/>
     <use xlink:href="#DejaVuSerif-Bold-69" x="254.597656"/>
     <use xlink:href="#DejaVuSerif-Bold-6e" x="292.585938"/>
     <use xlink:href="#DejaVuSerif-Bold-73" x="365.291016"/>
    </g>
   </g>
   <g id="text_4">
    <!-- 14.8% -->
    <g style="fill: #ffffff" transform="translate(85.516626 274.930679) scale(0.09 -0.09)">
     <defs>
      <path id="DejaVuSerif-Bold-34" d="M 4084 0 
L 1516 0 
L 1516 378 
L 2209 378 
L 2209 1228 
L 263 1228 
L 263 1588 
L 2216 4750 
L 3391 4750 
L 3391 1631 
L 4191 1631 
L 4191 1228 
L 3391 1228 
L 3391 378 
L 4084 378 
L 4084 0 
z
M 2209 1631 
L 2209 3897 
L 819 1631 
L 2209 1631 
z
" transform="scale(0.015625)"/>
      <path id="DejaVuSerif-Bold-38" d="M 2975 2484 
Q 3531 2394 3820 2075 
Q 4109 1756 4109 1241 
Q 4109 597 3623 253 
Q 3138 -91 2222 -91 
Q 1306 -91 818 253 
Q 331 597 331 1241 
Q 331 1756 622 2075 
Q 913 2394 1466 2484 
Q 975 2597 731 2861 
Q 488 3125 488 3531 
Q 488 4125 931 4437 
Q 1375 4750 2222 4750 
Q 3066 4750 3511 4437 
Q 3956 4125 3956 3531 
Q 3956 3125 3711 2861 
Q 3466 2597 2975 2484 
z
M 2747 3519 
Q 2747 4013 2628 4198 
Q 2509 4384 2222 4384 
Q 1931 4384 1814 4198 
Q 1697 4013 1697 3519 
Q 1697 3028 1814 2845 
Q 1931 2663 2222 2663 
Q 2513 2663 2630 2845 
Q 2747 3028 2747 3519 
z
M 2869 1294 
Q 2869 1866 2723 2081 
Q 2578 2297 2222 2297 
Q 1863 2297 1719 2081 
Q 1575 1866 1575 1294 
Q 1575 716 1720 495 
Q 1866 275 2222 275 
Q 2575 275 2722 495 
Q 2869 716 2869 1294 
z
" transform="scale(0.015625)"/>
     </defs>
     <use xlink:href="#DejaVuSerif-Bold-31"/>
     <use xlink:href="#DejaVuSerif-Bold-34" x="69.580078"/>
     <use xlink:href="#DejaVuSerif-Bold-2e" x="139.160156"/>
     <use xlink:href="#DejaVuSerif-Bold-38" x="173.974609"/>
     <use xlink:href="#DejaVuSerif-Bold-25" x="243.554688"/>
    </g>
   </g>
   <g id="text_5">
    <!-- Virtuous Women -->
    <g transform="translate(17.386937 460.405184) scale(0.1 -0.1)">
     <defs>
      <path id="DejaVuSerif-Bold-72" d="M 3438 3359 
L 3438 2369 
L 3084 2369 
Q 3066 2634 2941 2764 
Q 2816 2894 2578 2894 
Q 2216 2894 2006 2575 
Q 1797 2256 1797 1691 
L 1797 378 
L 2400 378 
L 2400 0 
L 219 0 
L 219 378 
L 691 378 
L 691 2944 
L 184 2944 
L 184 3322 
L 1797 3322 
L 1797 2731 
Q 1959 3078 2226 3245 
Q 2494 3413 2881 3413 
Q 2978 3413 3117 3398 
Q 3256 3384 3438 3359 
z
" transform="scale(0.015625)"/>
      <path id="DejaVuSerif-Bold-74" d="M 634 2944 
L 153 2944 
L 153 3322 
L 634 3322 
L 634 4353 
L 1741 4353 
L 1741 3322 
L 2663 3322 
L 2663 2944 
L 1741 2944 
L 1741 909 
Q 1741 475 1809 369 
Q 1878 263 2059 263 
Q 2259 263 2356 397 
Q 2453 531 2459 813 
L 2925 813 
Q 2897 313 2651 111 
Q 2406 -91 1806 -91 
Q 1122 -91 878 123 
Q 634 338 634 909 
L 634 2944 
z
" transform="scale(0.015625)"/>
      <path id="DejaVuSerif-Bold-75" d="M 3963 3322 
L 3963 378 
L 4434 378 
L 4434 0 
L 2853 0 
L 2853 469 
Q 2656 172 2400 40 
Q 2144 -91 1753 -91 
Q 1194 -91 908 239 
Q 622 569 622 1209 
L 622 2944 
L 147 2944 
L 147 3322 
L 1728 3322 
L 1728 1381 
Q 1728 763 1831 595 
Q 1934 428 2209 428 
Q 2544 428 2698 675 
Q 2853 922 2853 1459 
L 2853 2944 
L 2450 2944 
L 2450 3322 
L 3963 3322 
z
" transform="scale(0.015625)"/>
      <path id="DejaVuSerif-Bold-57" d="M 5453 0 
L 4647 0 
L 3591 3397 
L 2534 0 
L 1728 0 
L 397 4288 
L -56 4288 
L -56 4666 
L 2156 4666 
L 2156 4288 
L 1656 4288 
L 2547 1422 
L 3553 4666 
L 4441 4666 
L 5466 1369 
L 6375 4288 
L 5819 4288 
L 5819 4666 
L 7263 4666 
L 7263 4288 
L 6784 4288 
L 5453 0 
z
" transform="scale(0.015625)"/>
     </defs>
     <use xlink:href="#DejaVuSerif-Bold-56"/>
     <use xlink:href="#DejaVuSerif-Bold-69" x="75.837891"/>
     <use xlink:href="#DejaVuSerif-Bold-72" x="113.826172"/>
     <use xlink:href="#DejaVuSerif-Bold-74" x="166.511719"/>
     <use xlink:href="#DejaVuSerif-Bold-75" x="212.703125"/>
     <use xlink:href="#DejaVuSerif-Bold-6f" x="285.408203"/>
     <use xlink:href="#DejaVuSerif-Bold-75" x="352.107422"/>
     <use xlink:href="#DejaVuSerif-Bold-73" x="424.8125"/>
     <use xlink:href="#DejaVuSerif-Bold-20" x="481.111328"/>
     <use xlink:href="#DejaVuSerif-Bold-57" x="515.925781"/>
     <use xlink:href="#DejaVuSerif-Bold-6f" x="620.105469"/>
     <use xlink:href="#DejaVuSerif-Bold-6d" x="686.804688"/>
     <use xlink:href="#DejaVuSerif-Bold-65" x="792.615234"/>
     <use xlink:href="#DejaVuSerif-Bold-6e" x="856.238281"/>
    </g>
   </g>
   <g id="text_6">
    <!-- 14.4% -->
    <g style="fill: #ffffff" transform="translate(132.5946 424.154631) scale(0.09 -0.09)">
     <use xlink:href="#DejaVuSerif-Bold-31"/>
     <use xlink:href="#DejaVuSerif-Bold-34" x="69.580078"/>
     <use xlink:href="#DejaVuSerif-Bold-2e" x="139.160156"/>
     <use xlink:href="#DejaVuSerif-Bold-34" x="173.974609"/>
     <use xlink:href="#DejaVuSerif-Bold-25" x="243.554688"/>
    </g>
   </g>
   <g id="text_7">
    <!-- Filial Exemplars -->
    <g transform="translate(289.467598 530.489644) scale(0.1 -0.1)">
     <defs>
      <path id="DejaVuSerif-Bold-46" d="M 300 0 
L 300 378 
L 897 378 
L 897 4288 
L 300 4288 
L 300 4666 
L 4459 4666 
L 4459 3566 
L 4031 3566 
L 4031 4238 
L 2106 4238 
L 2106 2741 
L 3291 2741 
L 3291 3334 
L 3719 3334 
L 3719 1722 
L 3291 1722 
L 3291 2316 
L 2106 2316 
L 2106 378 
L 2841 378 
L 2841 0 
L 300 0 
z
" transform="scale(0.015625)"/>
      <path id="DejaVuSerif-Bold-45" d="M 300 0 
L 300 378 
L 897 378 
L 897 4288 
L 300 4288 
L 300 4666 
L 4494 4666 
L 4494 3566 
L 4063 3566 
L 4063 4238 
L 2100 4238 
L 2100 2741 
L 3322 2741 
L 3322 3334 
L 3750 3334 
L 3750 1722 
L 3322 1722 
L 3322 2316 
L 2100 2316 
L 2100 428 
L 4122 428 
L 4122 1100 
L 4550 1100 
L 4550 0 
L 300 0 
z
" transform="scale(0.015625)"/>
      <path id="DejaVuSerif-Bold-78" d="M 2247 2119 
L 2834 2944 
L 2425 2944 
L 2425 3322 
L 3719 3322 
L 3719 2944 
L 3278 2944 
L 2431 1759 
L 3419 378 
L 3859 378 
L 3859 0 
L 1747 0 
L 1747 378 
L 2175 378 
L 1550 1253 
L 922 378 
L 1369 378 
L 1369 0 
L 0 0 
L 0 378 
L 475 378 
L 1356 1619 
L 403 2944 
L 31 2944 
L 31 3322 
L 2059 3322 
L 2059 2944 
L 1656 2944 
L 2247 2119 
z
" transform="scale(0.015625)"/>
     </defs>
     <use xlink:href="#DejaVuSerif-Bold-46"/>
     <use xlink:href="#DejaVuSerif-Bold-69" x="70.996094"/>
     <use xlink:href="#DejaVuSerif-Bold-6c" x="108.984375"/>
     <use xlink:href="#DejaVuSerif-Bold-69" x="146.972656"/>
     <use xlink:href="#DejaVuSerif-Bold-61" x="184.960938"/>
     <use xlink:href="#DejaVuSerif-Bold-6c" x="249.755859"/>
     <use xlink:href="#DejaVuSerif-Bold-20" x="287.744141"/>
     <use xlink:href="#DejaVuSerif-Bold-45" x="322.558594"/>
     <use xlink:href="#DejaVuSerif-Bold-78" x="398.779297"/>
     <use xlink:href="#DejaVuSerif-Bold-65" x="458.398438"/>
     <use xlink:href="#DejaVuSerif-Bold-6d" x="522.021484"/>
     <use xlink:href="#DejaVuSerif-Bold-70" x="627.832031"/>
     <use xlink:href="#DejaVuSerif-Bold-6c" x="697.753906"/>
     <use xlink:href="#DejaVuSerif-Bold-61" x="735.742188"/>
     <use xlink:href="#DejaVuSerif-Bold-72" x="800.537109"/>
     <use xlink:href="#DejaVuSerif-Bold-73" x="853.222656"/>
    </g>
   </g>
   <g id="text_8">
    <!-- 13.2% -->
    <g style="fill: #ffffff" transform="translate(271.056006 478.310805) scale(0.09 -0.09)">
     <defs>
      <path id="DejaVuSerif-Bold-33" d="M 550 4531 
Q 963 4641 1350 4695 
Q 1738 4750 2106 4750 
Q 2950 4750 3401 4448 
Q 3853 4147 3853 3584 
Q 3853 3163 3593 2900 
Q 3334 2638 2834 2547 
Q 3444 2450 3744 2131 
Q 4044 1813 4044 1259 
Q 4044 606 3526 257 
Q 3009 -91 2028 -91 
Q 1659 -91 1267 -28 
Q 875 34 447 159 
L 447 1184 
L 825 1184 
Q 859 741 1103 508 
Q 1347 275 1778 275 
Q 2253 275 2512 539 
Q 2772 803 2772 1288 
Q 2772 1794 2501 2069 
Q 2231 2344 1734 2344 
L 1528 2344 
L 1528 2719 
L 1691 2719 
Q 2150 2719 2381 2931 
Q 2613 3144 2613 3566 
Q 2613 3963 2395 4173 
Q 2178 4384 1772 4384 
Q 1403 4384 1187 4182 
Q 972 3981 928 3597 
L 550 3597 
L 550 4531 
z
" transform="scale(0.015625)"/>
     </defs>
     <use xlink:href="#DejaVuSerif-Bold-31"/>
     <use xlink:href="#DejaVuSerif-Bold-33" x="69.580078"/>
     <use xlink:href="#DejaVuSerif-Bold-2e" x="139.160156"/>
     <use xlink:href="#DejaVuSerif-Bold-32" x="173.974609"/>
     <use xlink:href="#DejaVuSerif-Bold-25" x="243.554688"/>
    </g>
   </g>
   <g id="text_9">
    <!-- Loyal Ministers -->
    <g transform="translate(444.521754 456.248153) scale(0.1 -0.1)">
     <defs>
      <path id="DejaVuSerif-Bold-4c" d="M 300 0 
L 300 378 
L 897 378 
L 897 4288 
L 300 4288 
L 300 4666 
L 2700 4666 
L 2700 4288 
L 2100 4288 
L 2100 428 
L 3938 428 
L 3938 1166 
L 4359 1166 
L 4359 0 
L 300 0 
z
" transform="scale(0.015625)"/>
      <path id="DejaVuSerif-Bold-79" d="M 1997 -750 
Q 1847 -1116 1634 -1269 
Q 1422 -1422 1063 -1422 
Q 909 -1422 721 -1387 
Q 534 -1353 313 -1288 
L 313 -594 
L 666 -597 
Q 675 -838 779 -953 
Q 884 -1069 1094 -1069 
Q 1297 -1069 1422 -958 
Q 1547 -847 1672 -538 
L 1722 -422 
L 275 2944 
L -84 2944 
L -84 3322 
L 1831 3322 
L 1831 2944 
L 1434 2944 
L 2278 978 
L 3066 2944 
L 2625 2944 
L 2625 3322 
L 3872 3322 
L 3872 2944 
L 3469 2944 
L 1997 -750 
z
" transform="scale(0.015625)"/>
      <path id="DejaVuSerif-Bold-4d" d="M 269 0 
L 269 378 
L 863 378 
L 863 4288 
L 269 4288 
L 269 4666 
L 2194 4666 
L 3525 1672 
L 4863 4666 
L 6784 4666 
L 6784 4288 
L 6188 4288 
L 6188 378 
L 6784 378 
L 6784 0 
L 4384 0 
L 4384 378 
L 4978 378 
L 4978 3938 
L 3531 684 
L 2741 684 
L 1300 3938 
L 1300 378 
L 1894 378 
L 1894 0 
L 269 0 
z
" transform="scale(0.015625)"/>
     </defs>
     <use xlink:href="#DejaVuSerif-Bold-4c"/>
     <use xlink:href="#DejaVuSerif-Bold-6f" x="70.3125"/>
     <use xlink:href="#DejaVuSerif-Bold-79" x="137.011719"/>
     <use xlink:href="#DejaVuSerif-Bold-61" x="195.117188"/>
     <use xlink:href="#DejaVuSerif-Bold-6c" x="259.912109"/>
     <use xlink:href="#DejaVuSerif-Bold-20" x="297.900391"/>
     <use xlink:href="#DejaVuSerif-Bold-4d" x="332.714844"/>
     <use xlink:href="#DejaVuSerif-Bold-69" x="443.408203"/>
     <use xlink:href="#DejaVuSerif-Bold-6e" x="481.396484"/>
     <use xlink:href="#DejaVuSerif-Bold-69" x="554.101562"/>
     <use xlink:href="#DejaVuSerif-Bold-73" x="592.089844"/>
     <use xlink:href="#DejaVuSerif-Bold-74" x="648.388672"/>
     <use xlink:href="#DejaVuSerif-Bold-65" x="694.580078"/>
     <use xlink:href="#DejaVuSerif-Bold-72" x="758.203125"/>
     <use xlink:href="#DejaVuSerif-Bold-73" x="810.888672"/>
    </g>
   </g>
   <g id="text_10">
    <!-- 11.3% -->
    <g style="fill: #ffffff" transform="translate(390.870581 420.997316) scale(0.09 -0.09)">
     <use xlink:href="#DejaVuSerif-Bold-31"/>
     <use xlink:href="#DejaVuSerif-Bold-31" x="69.580078"/>
     <use xlink:href="#DejaVuSerif-Bold-2e" x="139.160156"/>
     <use xlink:href="#DejaVuSerif-Bold-33" x="173.974609"/>
     <use xlink:href="#DejaVuSerif-Bold-25" x="243.554688"/>
    </g>
   </g>
   <g id="text_11">
    <!-- Deities &amp; Immortals -->
    <g transform="translate(503.945888 314.696496) scale(0.1 -0.1)">
     <defs>
      <path id="DejaVuSerif-Bold-44" d="M 2100 378 
L 2534 378 
Q 3266 378 3605 847 
Q 3944 1316 3944 2338 
Q 3944 3353 3606 3820 
Q 3269 4288 2534 4288 
L 2100 4288 
L 2100 378 
z
M 300 0 
L 300 378 
L 897 378 
L 897 4288 
L 300 4288 
L 300 4666 
L 2694 4666 
Q 3950 4666 4615 4066 
Q 5281 3466 5281 2338 
Q 5281 1203 4614 601 
Q 3947 0 2694 0 
L 300 0 
z
" transform="scale(0.015625)"/>
      <path id="DejaVuSerif-Bold-26" d="M 5663 0 
L 4166 0 
L 3769 409 
Q 3456 159 3078 34 
Q 2700 -91 2253 -91 
Q 1316 -91 786 309 
Q 256 709 256 1409 
Q 256 1919 526 2280 
Q 797 2641 1375 2900 
Q 1216 3109 1136 3300 
Q 1056 3491 1056 3669 
Q 1056 4181 1486 4465 
Q 1916 4750 2694 4750 
Q 2925 4750 3233 4712 
Q 3541 4675 3928 4603 
L 3928 3628 
L 3525 3628 
Q 3469 4016 3287 4194 
Q 3106 4372 2772 4372 
Q 2456 4372 2275 4222 
Q 2094 4072 2094 3816 
Q 2094 3528 2653 2959 
Q 2716 2897 2747 2869 
L 4184 1363 
Q 4372 1575 4478 1853 
Q 4584 2131 4613 2484 
L 4044 2484 
L 4044 2859 
L 5606 2859 
L 5606 2484 
L 5056 2484 
Q 5003 2028 4861 1675 
Q 4719 1322 4488 1050 
L 5131 378 
L 5663 378 
L 5663 0 
z
M 3475 716 
L 1709 2553 
Q 1538 2344 1450 2108 
Q 1363 1872 1363 1613 
Q 1363 1084 1695 743 
Q 2028 403 2541 403 
Q 2784 403 3014 479 
Q 3244 556 3475 716 
z
" transform="scale(0.015625)"/>
      <path id="DejaVuSerif-Bold-49" d="M 300 0 
L 300 378 
L 897 378 
L 897 4288 
L 300 4288 
L 300 4666 
L 2700 4666 
L 2700 4288 
L 2100 4288 
L 2100 378 
L 2700 378 
L 2700 0 
L 300 0 
z
" transform="scale(0.015625)"/>
     </defs>
     <use xlink:href="#DejaVuSerif-Bold-44"/>
     <use xlink:href="#DejaVuSerif-Bold-65" x="86.71875"/>
     <use xlink:href="#DejaVuSerif-Bold-69" x="150.341797"/>
     <use xlink:href="#DejaVuSerif-Bold-74" x="188.330078"/>
     <use xlink:href="#DejaVuSerif-Bold-69" x="234.521484"/>
     <use xlink:href="#DejaVuSerif-Bold-65" x="272.509766"/>
     <use xlink:href="#DejaVuSerif-Bold-73" x="336.132812"/>
     <use xlink:href="#DejaVuSerif-Bold-20" x="392.431641"/>
     <use xlink:href="#DejaVuSerif-Bold-26" x="427.246094"/>
     <use xlink:href="#DejaVuSerif-Bold-20" x="517.529297"/>
     <use xlink:href="#DejaVuSerif-Bold-49" x="552.34375"/>
     <use xlink:href="#DejaVuSerif-Bold-6d" x="599.121094"/>
     <use xlink:href="#DejaVuSerif-Bold-6d" x="704.931641"/>
     <use xlink:href="#DejaVuSerif-Bold-6f" x="810.742188"/>
     <use xlink:href="#DejaVuSerif-Bold-72" x="877.441406"/>
     <use xlink:href="#DejaVuSerif-Bold-74" x="930.126953"/>
     <use xlink:href="#DejaVuSerif-Bold-61" x="976.318359"/>
     <use xlink:href="#DejaVuSerif-Bold-6c" x="1041.113281"/>
     <use xlink:href="#DejaVuSerif-Bold-73" x="1079.101562"/>
    </g>
   </g>
   <g id="text_12">
    <!-- 10.5% -->
    <g style="fill: #ffffff" transform="translate(436.78923 311.561554) scale(0.09 -0.09)">
     <defs>
      <path id="DejaVuSerif-Bold-30" d="M 2228 275 
Q 2603 275 2742 615 
Q 2881 956 2881 2328 
Q 2881 3691 2742 4037 
Q 2603 4384 2228 4384 
Q 1853 4384 1714 4043 
Q 1575 3703 1575 2328 
Q 1575 956 1714 615 
Q 1853 275 2228 275 
z
M 2228 -91 
Q 1294 -91 797 532 
Q 300 1156 300 2328 
Q 300 3500 797 4125 
Q 1294 4750 2228 4750 
Q 3159 4750 3656 4125 
Q 4153 3500 4153 2328 
Q 4153 1156 3656 532 
Q 3159 -91 2228 -91 
z
" transform="scale(0.015625)"/>
     </defs>
     <use xlink:href="#DejaVuSerif-Bold-31"/>
     <use xlink:href="#DejaVuSerif-Bold-30" x="69.580078"/>
     <use xlink:href="#DejaVuSerif-Bold-2e" x="139.160156"/>
     <use xlink:href="#DejaVuSerif-Bold-35" x="173.974609"/>
     <use xlink:href="#DejaVuSerif-Bold-25" x="243.554688"/>
    </g>
   </g>
   <g id="text_13">
    <!-- Puppet Accomplices -->
    <g transform="translate(474.103101 188.525246) scale(0.1 -0.1)">
     <defs>
      <path id="DejaVuSerif-Bold-41" d="M -50 0 
L -50 378 
L 331 378 
L 2088 4666 
L 2834 4666 
L 4594 378 
L 5038 378 
L 5038 0 
L 2853 0 
L 2853 378 
L 3309 378 
L 2925 1331 
L 1172 1331 
L 781 378 
L 1338 378 
L 1338 0 
L -50 0 
z
M 1325 1709 
L 2772 1709 
L 2053 3494 
L 1325 1709 
z
" transform="scale(0.015625)"/>
      <path id="DejaVuSerif-Bold-63" d="M 3609 1038 
Q 3491 469 3123 189 
Q 2756 -91 2125 -91 
Q 1238 -91 750 368 
Q 263 828 263 1663 
Q 263 2488 744 2950 
Q 1225 3413 2081 3413 
Q 2428 3413 2781 3347 
Q 3134 3281 3500 3150 
L 3500 2228 
L 3150 2228 
Q 3100 2650 2903 2854 
Q 2706 3059 2350 3059 
Q 1888 3059 1692 2746 
Q 1497 2434 1497 1663 
Q 1497 909 1687 586 
Q 1878 263 2309 263 
Q 2644 263 2845 463 
Q 3047 663 3091 1038 
L 3609 1038 
z
" transform="scale(0.015625)"/>
     </defs>
     <use xlink:href="#DejaVuSerif-Bold-50"/>
     <use xlink:href="#DejaVuSerif-Bold-75" x="75.195312"/>
     <use xlink:href="#DejaVuSerif-Bold-70" x="147.900391"/>
     <use xlink:href="#DejaVuSerif-Bold-70" x="217.822266"/>
     <use xlink:href="#DejaVuSerif-Bold-65" x="287.744141"/>
     <use xlink:href="#DejaVuSerif-Bold-74" x="351.367188"/>
     <use xlink:href="#DejaVuSerif-Bold-20" x="397.558594"/>
     <use xlink:href="#DejaVuSerif-Bold-41" x="432.373047"/>
     <use xlink:href="#DejaVuSerif-Bold-63" x="509.960938"/>
     <use xlink:href="#DejaVuSerif-Bold-63" x="570.849609"/>
     <use xlink:href="#DejaVuSerif-Bold-6f" x="631.738281"/>
     <use xlink:href="#DejaVuSerif-Bold-6d" x="698.4375"/>
     <use xlink:href="#DejaVuSerif-Bold-70" x="804.248047"/>
     <use xlink:href="#DejaVuSerif-Bold-6c" x="874.169922"/>
     <use xlink:href="#DejaVuSerif-Bold-69" x="912.158203"/>
     <use xlink:href="#DejaVuSerif-Bold-63" x="950.146484"/>
     <use xlink:href="#DejaVuSerif-Bold-65" x="1011.035156"/>
     <use xlink:href="#DejaVuSerif-Bold-73" x="1074.658203"/>
    </g>
   </g>
   <g id="text_14">
    <!-- 7.8% -->
    <g style="fill: #ffffff" transform="translate(416.85991 214.065588) scale(0.09 -0.09)">
     <defs>
      <path id="DejaVuSerif-Bold-37" d="M 3922 3872 
L 1997 0 
L 1363 0 
L 3238 3781 
L 934 3781 
L 934 3150 
L 506 3150 
L 506 4666 
L 3922 4666 
L 3922 3872 
z
" transform="scale(0.015625)"/>
     </defs>
     <use xlink:href="#DejaVuSerif-Bold-37"/>
     <use xlink:href="#DejaVuSerif-Bold-2e" x="69.580078"/>
     <use xlink:href="#DejaVuSerif-Bold-38" x="104.394531"/>
     <use xlink:href="#DejaVuSerif-Bold-25" x="173.974609"/>
    </g>
   </g>
   <g id="text_15">
    <!-- Scholars &amp; Beauties -->
    <g transform="translate(404.489656 113.148527) scale(0.1 -0.1)">
     <defs>
      <path id="DejaVuSerif-Bold-53" d="M 494 225 
L 494 1331 
L 891 1331 
Q 981 806 1318 547 
Q 1656 288 2253 288 
Q 2738 288 2991 472 
Q 3244 656 3244 1013 
Q 3244 1294 3072 1450 
Q 2900 1606 2363 1741 
L 1663 1913 
Q 978 2088 700 2398 
Q 422 2709 422 3284 
Q 422 3978 883 4364 
Q 1344 4750 2175 4750 
Q 2584 4750 3026 4681 
Q 3469 4613 3944 4475 
L 3944 3444 
L 3547 3444 
Q 3456 3925 3150 4148 
Q 2844 4372 2278 4372 
Q 1816 4372 1580 4211 
Q 1344 4050 1344 3731 
Q 1344 3441 1506 3289 
Q 1669 3138 2303 2975 
L 3003 2803 
Q 3653 2641 3945 2297 
Q 4238 1953 4238 1350 
Q 4238 644 3750 276 
Q 3263 -91 2316 -91 
Q 1859 -91 1409 -12 
Q 959 66 494 225 
z
" transform="scale(0.015625)"/>
      <path id="DejaVuSerif-Bold-68" d="M 219 0 
L 219 378 
L 691 378 
L 691 4488 
L 197 4488 
L 197 4863 
L 1797 4863 
L 1797 2853 
Q 1997 3150 2253 3281 
Q 2509 3413 2900 3413 
Q 3459 3413 3745 3083 
Q 4031 2753 4031 2113 
L 4031 378 
L 4506 378 
L 4506 0 
L 2522 0 
L 2522 378 
L 2925 378 
L 2925 2144 
Q 2925 2566 2817 2730 
Q 2709 2894 2444 2894 
Q 2109 2894 1953 2648 
Q 1797 2403 1797 1869 
L 1797 378 
L 2203 378 
L 2203 0 
L 219 0 
z
" transform="scale(0.015625)"/>
      <path id="DejaVuSerif-Bold-42" d="M 300 0 
L 300 378 
L 897 378 
L 897 4288 
L 300 4288 
L 300 4666 
L 3066 4666 
Q 3919 4666 4347 4378 
Q 4775 4091 4775 3513 
Q 4775 3097 4479 2853 
Q 4184 2609 3603 2547 
Q 4306 2481 4681 2172 
Q 5056 1863 5056 1350 
Q 5056 656 4532 328 
Q 4009 0 2894 0 
L 300 0 
z
M 2100 2719 
L 2509 2719 
Q 3047 2719 3306 2914 
Q 3566 3109 3566 3513 
Q 3566 3919 3314 4103 
Q 3063 4288 2509 4288 
L 2100 4288 
L 2100 2719 
z
M 2100 378 
L 2547 378 
Q 3144 378 3431 615 
Q 3719 853 3719 1350 
Q 3719 1850 3428 2097 
Q 3138 2344 2547 2344 
L 2100 2344 
L 2100 378 
z
" transform="scale(0.015625)"/>
     </defs>
     <use xlink:href="#DejaVuSerif-Bold-53"/>
     <use xlink:href="#DejaVuSerif-Bold-63" x="72.216797"/>
     <use xlink:href="#DejaVuSerif-Bold-68" x="133.105469"/>
     <use xlink:href="#DejaVuSerif-Bold-6f" x="205.810547"/>
     <use xlink:href="#DejaVuSerif-Bold-6c" x="272.509766"/>
     <use xlink:href="#DejaVuSerif-Bold-61" x="310.498047"/>
     <use xlink:href="#DejaVuSerif-Bold-72" x="375.292969"/>
     <use xlink:href="#DejaVuSerif-Bold-73" x="427.978516"/>
     <use xlink:href="#DejaVuSerif-Bold-20" x="484.277344"/>
     <use xlink:href="#DejaVuSerif-Bold-26" x="519.091797"/>
     <use xlink:href="#DejaVuSerif-Bold-20" x="609.375"/>
     <use xlink:href="#DejaVuSerif-Bold-42" x="644.189453"/>
     <use xlink:href="#DejaVuSerif-Bold-65" x="728.710938"/>
     <use xlink:href="#DejaVuSerif-Bold-61" x="792.333984"/>
     <use xlink:href="#DejaVuSerif-Bold-75" x="857.128906"/>
     <use xlink:href="#DejaVuSerif-Bold-74" x="929.833984"/>
     <use xlink:href="#DejaVuSerif-Bold-69" x="976.025391"/>
     <use xlink:href="#DejaVuSerif-Bold-65" x="1014.013672"/>
     <use xlink:href="#DejaVuSerif-Bold-73" x="1077.636719"/>
    </g>
   </g>
   <g id="text_16">
    <!-- 6.6% -->
    <g style="fill: #ffffff" transform="translate(363.067703 155.819941) scale(0.09 -0.09)">
     <defs>
      <path id="DejaVuSerif-Bold-36" d="M 1575 2766 
Q 1778 2928 2029 3009 
Q 2281 3091 2578 3091 
Q 3294 3091 3701 2672 
Q 4109 2253 4109 1522 
Q 4109 750 3650 329 
Q 3191 -91 2344 -91 
Q 1388 -91 895 486 
Q 403 1063 403 2181 
Q 403 3453 950 4101 
Q 1497 4750 2572 4750 
Q 2853 4750 3175 4703 
Q 3497 4656 3866 4563 
L 3866 3738 
L 3488 3738 
Q 3409 4056 3192 4220 
Q 2975 4384 2631 4384 
Q 2075 4384 1826 4003 
Q 1578 3622 1575 2766 
z
M 2272 275 
Q 2594 275 2731 548 
Q 2869 822 2869 1497 
Q 2869 2172 2731 2445 
Q 2594 2719 2272 2719 
Q 1950 2719 1814 2445 
Q 1678 2172 1678 1497 
Q 1678 822 1814 548 
Q 1950 275 2272 275 
z
" transform="scale(0.015625)"/>
     </defs>
     <use xlink:href="#DejaVuSerif-Bold-36"/>
     <use xlink:href="#DejaVuSerif-Bold-2e" x="69.580078"/>
     <use xlink:href="#DejaVuSerif-Bold-36" x="104.394531"/>
     <use xlink:href="#DejaVuSerif-Bold-25" x="173.974609"/>
    </g>
   </g>
   <g id="text_17">
    <!-- Emperors &amp; Generals -->
    <g transform="translate(325.430484 78.833233) scale(0.1 -0.1)">
     <defs>
      <path id="DejaVuSerif-Bold-47" d="M 4403 3200 
Q 4263 3819 3934 4095 
Q 3606 4372 3009 4372 
Q 2284 4372 1945 3880 
Q 1606 3388 1606 2328 
Q 1606 1278 1931 783 
Q 2256 288 2944 288 
Q 3206 288 3431 347 
Q 3656 406 3841 525 
L 3841 1806 
L 3278 1806 
L 3278 2181 
L 4959 2181 
L 4959 391 
Q 4434 147 3911 28 
Q 3388 -91 2841 -91 
Q 1641 -91 955 556 
Q 269 1203 269 2328 
Q 269 3456 955 4103 
Q 1641 4750 2841 4750 
Q 3341 4750 3825 4650 
Q 4309 4550 4800 4347 
L 4800 3200 
L 4403 3200 
z
" transform="scale(0.015625)"/>
     </defs>
     <use xlink:href="#DejaVuSerif-Bold-45"/>
     <use xlink:href="#DejaVuSerif-Bold-6d" x="76.220703"/>
     <use xlink:href="#DejaVuSerif-Bold-70" x="182.03125"/>
     <use xlink:href="#DejaVuSerif-Bold-65" x="251.953125"/>
     <use xlink:href="#DejaVuSerif-Bold-72" x="315.576172"/>
     <use xlink:href="#DejaVuSerif-Bold-6f" x="368.261719"/>
     <use xlink:href="#DejaVuSerif-Bold-72" x="434.960938"/>
     <use xlink:href="#DejaVuSerif-Bold-73" x="487.646484"/>
     <use xlink:href="#DejaVuSerif-Bold-20" x="543.945312"/>
     <use xlink:href="#DejaVuSerif-Bold-26" x="578.759766"/>
     <use xlink:href="#DejaVuSerif-Bold-20" x="669.042969"/>
     <use xlink:href="#DejaVuSerif-Bold-47" x="703.857422"/>
     <use xlink:href="#DejaVuSerif-Bold-65" x="789.257812"/>
     <use xlink:href="#DejaVuSerif-Bold-6e" x="852.880859"/>
     <use xlink:href="#DejaVuSerif-Bold-65" x="925.585938"/>
     <use xlink:href="#DejaVuSerif-Bold-72" x="989.208984"/>
     <use xlink:href="#DejaVuSerif-Bold-61" x="1041.894531"/>
     <use xlink:href="#DejaVuSerif-Bold-6c" x="1106.689453"/>
     <use xlink:href="#DejaVuSerif-Bold-73" x="1144.677734"/>
    </g>
   </g>
   <g id="text_18">
    <!-- 5.4% -->
    <g style="fill: #ffffff" transform="translate(301.976525 129.303578) scale(0.09 -0.09)">
     <use xlink:href="#DejaVuSerif-Bold-35"/>
     <use xlink:href="#DejaVuSerif-Bold-2e" x="69.580078"/>
     <use xlink:href="#DejaVuSerif-Bold-34" x="104.394531"/>
     <use xlink:href="#DejaVuSerif-Bold-25" x="173.974609"/>
    </g>
   </g>
   <g id="text_19">
    <!-- Spiritual Animals -->
    <g transform="translate(281.085207 73.385251) scale(0.1 -0.1)">
     <use xlink:href="#DejaVuSerif-Bold-53"/>
     <use xlink:href="#DejaVuSerif-Bold-70" x="72.216797"/>
     <use xlink:href="#DejaVuSerif-Bold-69" x="142.138672"/>
     <use xlink:href="#DejaVuSerif-Bold-72" x="180.126953"/>
     <use xlink:href="#DejaVuSerif-Bold-69" x="232.8125"/>
     <use xlink:href="#DejaVuSerif-Bold-74" x="270.800781"/>
     <use xlink:href="#DejaVuSerif-Bold-75" x="316.992188"/>
     <use xlink:href="#DejaVuSerif-Bold-61" x="389.697266"/>
     <use xlink:href="#DejaVuSerif-Bold-6c" x="454.492188"/>
     <use xlink:href="#DejaVuSerif-Bold-20" x="492.480469"/>
     <use xlink:href="#DejaVuSerif-Bold-41" x="527.294922"/>
     <use xlink:href="#DejaVuSerif-Bold-6e" x="604.882812"/>
     <use xlink:href="#DejaVuSerif-Bold-69" x="677.587891"/>
     <use xlink:href="#DejaVuSerif-Bold-6d" x="715.576172"/>
     <use xlink:href="#DejaVuSerif-Bold-61" x="821.386719"/>
     <use xlink:href="#DejaVuSerif-Bold-6c" x="886.181641"/>
     <use xlink:href="#DejaVuSerif-Bold-73" x="924.169922"/>
    </g>
   </g>
   <g id="text_20">
    <!-- 0.8% -->
    <g style="fill: #ffffff" transform="translate(267.709719 125.093774) scale(0.09 -0.09)">
     <use xlink:href="#DejaVuSerif-Bold-30"/>
     <use xlink:href="#DejaVuSerif-Bold-2e" x="69.580078"/>
     <use xlink:href="#DejaVuSerif-Bold-38" x="104.394531"/>
     <use xlink:href="#DejaVuSerif-Bold-25" x="173.974609"/>
    </g>
   </g>
   <g id="text_21">
    <!-- Distribution of Character Role Types -->
    <g transform="translate(111.188219 19.3575) scale(0.16 -0.16)">
     <defs>
      <path id="DejaVuSerif-Bold-62" d="M 622 378 
L 622 4488 
L 147 4488 
L 147 4863 
L 1728 4863 
L 1728 2900 
Q 1869 3159 2106 3286 
Q 2344 3413 2694 3413 
Q 3403 3413 3811 2945 
Q 4219 2478 4219 1663 
Q 4219 847 3811 378 
Q 3403 -91 2694 -91 
Q 2344 -91 2106 36 
Q 1869 163 1728 422 
L 1728 0 
L 147 0 
L 147 378 
L 622 378 
z
M 1728 1497 
Q 1728 916 1876 656 
Q 2025 397 2356 397 
Q 2697 397 2836 672 
Q 2975 947 2975 1663 
Q 2975 2378 2836 2651 
Q 2697 2925 2356 2925 
Q 2025 2925 1876 2665 
Q 1728 2406 1728 1825 
L 1728 1497 
z
" transform="scale(0.015625)"/>
      <path id="DejaVuSerif-Bold-66" d="M 3097 4031 
L 2747 4031 
Q 2722 4275 2605 4394 
Q 2488 4513 2272 4513 
Q 2022 4513 1909 4333 
Q 1797 4153 1797 3750 
L 1797 3322 
L 2631 3322 
L 2631 2944 
L 1797 2944 
L 1797 378 
L 2438 378 
L 2438 0 
L 219 0 
L 219 378 
L 691 378 
L 691 2944 
L 197 2944 
L 197 3322 
L 691 3322 
L 691 3738 
Q 691 4291 1044 4577 
Q 1397 4863 2081 4863 
Q 2347 4863 2600 4833 
Q 2853 4803 3097 4744 
L 3097 4031 
z
" transform="scale(0.015625)"/>
      <path id="DejaVuSerif-Bold-52" d="M 3397 2278 
Q 3675 2238 3865 2094 
Q 4056 1950 4197 1678 
L 4878 378 
L 5356 378 
L 5356 0 
L 3822 0 
L 3078 1409 
Q 2863 1847 2711 1967 
Q 2559 2088 2291 2088 
L 2100 2088 
L 2100 378 
L 2700 378 
L 2700 0 
L 300 0 
L 300 378 
L 897 378 
L 897 4288 
L 300 4288 
L 300 4666 
L 2963 4666 
Q 3775 4666 4217 4339 
Q 4659 4013 4659 3413 
Q 4659 2925 4345 2642 
Q 4031 2359 3397 2278 
z
M 2100 2463 
L 2509 2463 
Q 2947 2463 3183 2700 
Q 3419 2938 3419 3378 
Q 3419 3819 3183 4053 
Q 2947 4288 2509 4288 
L 2100 4288 
L 2100 2463 
z
" transform="scale(0.015625)"/>
      <path id="DejaVuSerif-Bold-54" d="M 1159 0 
L 1159 378 
L 1778 378 
L 1778 4238 
L 500 4238 
L 500 3500 
L 72 3500 
L 72 4666 
L 4697 4666 
L 4697 3500 
L 4275 3500 
L 4275 4238 
L 2988 4238 
L 2988 378 
L 3609 378 
L 3609 0 
L 1159 0 
z
" transform="scale(0.015625)"/>
     </defs>
     <use xlink:href="#DejaVuSerif-Bold-44"/>
     <use xlink:href="#DejaVuSerif-Bold-69" x="86.71875"/>
     <use xlink:href="#DejaVuSerif-Bold-73" x="124.707031"/>
     <use xlink:href="#DejaVuSerif-Bold-74" x="181.005859"/>
     <use xlink:href="#DejaVuSerif-Bold-72" x="227.197266"/>
     <use xlink:href="#DejaVuSerif-Bold-69" x="279.882812"/>
     <use xlink:href="#DejaVuSerif-Bold-62" x="317.871094"/>
     <use xlink:href="#DejaVuSerif-Bold-75" x="387.792969"/>
     <use xlink:href="#DejaVuSerif-Bold-74" x="460.498047"/>
     <use xlink:href="#DejaVuSerif-Bold-69" x="506.689453"/>
     <use xlink:href="#DejaVuSerif-Bold-6f" x="544.677734"/>
     <use xlink:href="#DejaVuSerif-Bold-6e" x="611.376953"/>
     <use xlink:href="#DejaVuSerif-Bold-20" x="684.082031"/>
     <use xlink:href="#DejaVuSerif-Bold-6f" x="718.896484"/>
     <use xlink:href="#DejaVuSerif-Bold-66" x="785.595703"/>
     <use xlink:href="#DejaVuSerif-Bold-20" x="828.613281"/>
     <use xlink:href="#DejaVuSerif-Bold-43" x="863.427734"/>
     <use xlink:href="#DejaVuSerif-Bold-68" x="943.017578"/>
     <use xlink:href="#DejaVuSerif-Bold-61" x="1015.722656"/>
     <use xlink:href="#DejaVuSerif-Bold-72" x="1080.517578"/>
     <use xlink:href="#DejaVuSerif-Bold-61" x="1133.203125"/>
     <use xlink:href="#DejaVuSerif-Bold-63" x="1197.998047"/>
     <use xlink:href="#DejaVuSerif-Bold-74" x="1258.886719"/>
     <use xlink:href="#DejaVuSerif-Bold-65" x="1305.078125"/>
     <use xlink:href="#DejaVuSerif-Bold-72" x="1368.701172"/>
     <use xlink:href="#DejaVuSerif-Bold-20" x="1421.386719"/>
     <use xlink:href="#DejaVuSerif-Bold-52" x="1456.201172"/>
     <use xlink:href="#DejaVuSerif-Bold-6f" x="1539.306641"/>
     <use xlink:href="#DejaVuSerif-Bold-6c" x="1606.005859"/>
     <use xlink:href="#DejaVuSerif-Bold-65" x="1643.994141"/>
     <use xlink:href="#DejaVuSerif-Bold-20" x="1707.617188"/>
     <use xlink:href="#DejaVuSerif-Bold-54" x="1742.431641"/>
     <use xlink:href="#DejaVuSerif-Bold-79" x="1805.845703"/>
     <use xlink:href="#DejaVuSerif-Bold-70" x="1863.951172"/>
     <use xlink:href="#DejaVuSerif-Bold-65" x="1933.873047"/>
     <use xlink:href="#DejaVuSerif-Bold-73" x="1997.496094"/>
    </g>
   </g>
  </g>
 </g>
 <defs>
  <clipPath id="pf809204d58">
   <rect x="15.491969" y="39.3575" width="520" height="520"/>
  </clipPath>
 </defs>
</svg>
