<?xml version="1.0" encoding="utf-8" standalone="no"?>
<!DOCTYPE svg PUBLIC "-//W3C//DTD SVG 1.1//EN"
  "http://www.w3.org/Graphics/SVG/1.1/DTD/svg11.dtd">
<svg xmlns:xlink="http://www.w3.org/1999/xlink" width="998.715937pt" height="566.480428pt" viewBox="0 0 998.715937 566.480428" xmlns="http://www.w3.org/2000/svg" version="1.1">
 <metadata>
  <rdf:RDF xmlns:dc="http://purl.org/dc/elements/1.1/" xmlns:cc="http://creativecommons.org/ns#" xmlns:rdf="http://www.w3.org/1999/02/22-rdf-syntax-ns#">
   <cc:Work>
    <dc:type rdf:resource="http://purl.org/dc/dcmitype/StillImage"/>
    <dc:date>2025-07-25T08:24:14.783727</dc:date>
    <dc:format>image/svg+xml</dc:format>
    <dc:creator>
     <cc:Agent>
      <dc:title>Matplotlib v3.9.2, https://matplotlib.org/</dc:title>
     </cc:Agent>
    </dc:creator>
   </cc:Work>
  </rdf:RDF>
 </metadata>
 <defs>
  <style type="text/css">*{stroke-linejoin: round; stroke-linecap: butt}</style>
 </defs>
 <g id="figure_1">
  <g id="patch_1">
   <path d="M 0 566.480428 
L 998.715937 566.480428 
L 998.715937 0 
L 0 0 
z
" style="fill: #ffffff"/>
  </g>
  <g id="axes_1">
   <g id="patch_2">
    <path d="M 51.035938 441.124621 
L 991.515938 441.124621 
L 991.515938 39.3575 
L 51.035938 39.3575 
z
" style="fill: #ffffff"/>
   </g>
   <g id="patch_3">
    <path d="M 93.785028 392.390061 
L 163.579463 392.390061 
L 163.579463 349.984387 
L 93.785028 349.984387 
z
" clip-path="url(#p03e16d6bca)" style="fill: #2e86c1; opacity: 0.8; stroke: #ffffff; stroke-width: 0.8; stroke-linejoin: miter"/>
   </g>
   <g id="patch_4">
    <path d="M 181.028071 392.390061 
L 250.822505 392.390061 
L 250.822505 356.164108 
L 181.028071 356.164108 
z
" clip-path="url(#p03e16d6bca)" style="fill: #f39c12; opacity: 0.8; stroke: #ffffff; stroke-width: 0.8; stroke-linejoin: miter"/>
   </g>
   <g id="patch_5">
    <path d="M 268.271114 392.390061 
L 338.065548 392.390061 
L 338.065548 365.966425 
L 268.271114 365.966425 
z
" clip-path="url(#p03e16d6bca)" style="fill: #27ae60; opacity: 0.8; stroke: #ffffff; stroke-width: 0.8; stroke-linejoin: miter"/>
   </g>
   <g id="patch_6">
    <path d="M 355.514156 392.390061 
L 425.308591 392.390061 
L 425.308591 274.336075 
L 355.514156 274.336075 
z
" clip-path="url(#p03e16d6bca)" style="fill: #e74c3c; opacity: 0.8; stroke: #ffffff; stroke-width: 0.8; stroke-linejoin: miter"/>
   </g>
   <g id="patch_7">
    <path d="M 442.757199 392.390061 
L 512.551633 392.390061 
L 512.551633 314.184622 
L 442.757199 314.184622 
z
" clip-path="url(#p03e16d6bca)" style="fill: #9b59b6; opacity: 0.8; stroke: #ffffff; stroke-width: 0.8; stroke-linejoin: miter"/>
   </g>
   <g id="patch_8">
    <path d="M 530.000242 392.390061 
L 599.794676 392.390061 
L 599.794676 322.069094 
L 530.000242 322.069094 
z
" clip-path="url(#p03e16d6bca)" style="fill: #f1c40f; opacity: 0.8; stroke: #ffffff; stroke-width: 0.8; stroke-linejoin: miter"/>
   </g>
   <g id="patch_9">
    <path d="M 617.243284 392.390061 
L 687.037719 392.390061 
L 687.037719 240.241061 
L 617.243284 240.241061 
z
" clip-path="url(#p03e16d6bca)" style="fill: #e67e22; opacity: 0.8; stroke: #ffffff; stroke-width: 0.8; stroke-linejoin: miter"/>
   </g>
   <g id="patch_10">
    <path d="M 704.486327 392.390061 
L 774.280761 392.390061 
L 774.280761 349.771293 
L 704.486327 349.771293 
z
" clip-path="url(#p03e16d6bca)" style="fill: #1abc9c; opacity: 0.8; stroke: #ffffff; stroke-width: 0.8; stroke-linejoin: miter"/>
   </g>
   <g id="patch_11">
    <path d="M 791.72937 392.390061 
L 861.523804 392.390061 
L 861.523804 305.660869 
L 791.72937 305.660869 
z
" clip-path="url(#p03e16d6bca)" style="fill: #34495e; opacity: 0.8; stroke: #ffffff; stroke-width: 0.8; stroke-linejoin: miter"/>
   </g>
   <g id="patch_12">
    <path d="M 878.972412 392.390061 
L 948.766847 392.390061 
L 948.766847 229.799463 
L 878.972412 229.799463 
z
" clip-path="url(#p03e16d6bca)" style="fill: #d35400; opacity: 0.8; stroke: #ffffff; stroke-width: 0.8; stroke-linejoin: miter"/>
   </g>
   <g id="matplotlib.axis_1">
    <g id="xtick_1">
     <g id="line2d_1">
      <defs>
       <path id="mcddd56a6f8" d="M 0 0 
L 0 3.5 
" style="stroke: #000000; stroke-width: 0.8"/>
      </defs>
      <g>
       <use xlink:href="#mcddd56a6f8" x="128.682245" y="441.124621" style="stroke: #000000; stroke-width: 0.8"/>
      </g>
     </g>
     <g id="text_1">
      <!-- Common People -->
      <g transform="translate(63.273874 517.825573) rotate(-45) scale(0.11 -0.11)">
       <defs>
        <path id="DejaVuSerif-43" d="M 4513 1234 
Q 4306 581 3820 245 
Q 3334 -91 2591 -91 
Q 2134 -91 1743 65 
Q 1353 222 1050 525 
Q 700 875 529 1320 
Q 359 1766 359 2328 
Q 359 3416 987 4083 
Q 1616 4750 2644 4750 
Q 3025 4750 3456 4650 
Q 3888 4550 4384 4347 
L 4384 3272 
L 4031 3272 
Q 3916 3859 3567 4137 
Q 3219 4416 2591 4416 
Q 1844 4416 1459 3886 
Q 1075 3356 1075 2328 
Q 1075 1303 1459 773 
Q 1844 244 2591 244 
Q 3113 244 3450 492 
Q 3788 741 3938 1234 
L 4513 1234 
z
" transform="scale(0.015625)"/>
        <path id="DejaVuSerif-6f" d="M 1925 219 
Q 2388 219 2623 584 
Q 2859 950 2859 1663 
Q 2859 2375 2623 2739 
Q 2388 3103 1925 3103 
Q 1463 3103 1227 2739 
Q 991 2375 991 1663 
Q 991 950 1228 584 
Q 1466 219 1925 219 
z
M 1925 -91 
Q 1200 -91 759 389 
Q 319 869 319 1663 
Q 319 2456 758 2934 
Q 1197 3413 1925 3413 
Q 2653 3413 3092 2934 
Q 3531 2456 3531 1663 
Q 3531 869 3092 389 
Q 2653 -91 1925 -91 
z
" transform="scale(0.015625)"/>
        <path id="DejaVuSerif-6d" d="M 3316 2675 
Q 3481 3041 3739 3227 
Q 3997 3413 4341 3413 
Q 4863 3413 5119 3089 
Q 5375 2766 5375 2113 
L 5375 331 
L 5894 331 
L 5894 0 
L 4300 0 
L 4300 331 
L 4800 331 
L 4800 2047 
Q 4800 2556 4650 2772 
Q 4500 2988 4153 2988 
Q 3769 2988 3567 2697 
Q 3366 2406 3366 1850 
L 3366 331 
L 3866 331 
L 3866 0 
L 2291 0 
L 2291 331 
L 2791 331 
L 2791 2069 
Q 2791 2566 2641 2777 
Q 2491 2988 2144 2988 
Q 1759 2988 1557 2697 
Q 1356 2406 1356 1850 
L 1356 331 
L 1856 331 
L 1856 0 
L 263 0 
L 263 331 
L 781 331 
L 781 2994 
L 231 2994 
L 231 3322 
L 1356 3322 
L 1356 2731 
Q 1516 3063 1762 3238 
Q 2009 3413 2322 3413 
Q 2709 3413 2968 3220 
Q 3228 3028 3316 2675 
z
" transform="scale(0.015625)"/>
        <path id="DejaVuSerif-6e" d="M 263 0 
L 263 331 
L 781 331 
L 781 2988 
L 231 2988 
L 231 3322 
L 1356 3322 
L 1356 2731 
Q 1516 3069 1770 3241 
Q 2025 3413 2363 3413 
Q 2913 3413 3172 3097 
Q 3431 2781 3431 2113 
L 3431 331 
L 3944 331 
L 3944 0 
L 2356 0 
L 2356 331 
L 2853 331 
L 2853 1931 
Q 2853 2541 2703 2767 
Q 2553 2994 2175 2994 
Q 1775 2994 1565 2701 
Q 1356 2409 1356 1850 
L 1356 331 
L 1856 331 
L 1856 0 
L 263 0 
z
" transform="scale(0.015625)"/>
        <path id="DejaVuSerif-20" transform="scale(0.015625)"/>
        <path id="DejaVuSerif-50" d="M 1581 2375 
L 2406 2375 
Q 2872 2375 3115 2626 
Q 3359 2878 3359 3353 
Q 3359 3831 3115 4081 
Q 2872 4331 2406 4331 
L 1581 4331 
L 1581 2375 
z
M 353 0 
L 353 331 
L 947 331 
L 947 4331 
L 353 4331 
L 353 4666 
L 2559 4666 
Q 3259 4666 3668 4311 
Q 4078 3956 4078 3353 
Q 4078 2753 3668 2397 
Q 3259 2041 2559 2041 
L 1581 2041 
L 1581 331 
L 2303 331 
L 2303 0 
L 353 0 
z
" transform="scale(0.015625)"/>
        <path id="DejaVuSerif-65" d="M 3469 1600 
L 991 1600 
L 991 1575 
Q 991 903 1244 561 
Q 1497 219 1991 219 
Q 2369 219 2611 417 
Q 2853 616 2950 1006 
L 3413 1006 
Q 3275 459 2904 184 
Q 2534 -91 1931 -91 
Q 1203 -91 761 389 
Q 319 869 319 1663 
Q 319 2450 753 2931 
Q 1188 3413 1894 3413 
Q 2647 3413 3050 2948 
Q 3453 2484 3469 1600 
z
M 2791 1931 
Q 2772 2513 2545 2808 
Q 2319 3103 1894 3103 
Q 1497 3103 1269 2806 
Q 1041 2509 991 1931 
L 2791 1931 
z
" transform="scale(0.015625)"/>
        <path id="DejaVuSerif-70" d="M 1313 1825 
L 1313 1497 
Q 1313 897 1542 583 
Q 1772 269 2209 269 
Q 2650 269 2876 622 
Q 3103 975 3103 1663 
Q 3103 2353 2876 2703 
Q 2650 3053 2209 3053 
Q 1772 3053 1542 2737 
Q 1313 2422 1313 1825 
z
M 738 2988 
L 184 2988 
L 184 3322 
L 1313 3322 
L 1313 2803 
Q 1481 3116 1742 3264 
Q 2003 3413 2388 3413 
Q 3000 3413 3387 2928 
Q 3775 2444 3775 1663 
Q 3775 881 3387 395 
Q 3000 -91 2388 -91 
Q 2003 -91 1742 57 
Q 1481 206 1313 519 
L 1313 -997 
L 1856 -997 
L 1856 -1331 
L 184 -1331 
L 184 -997 
L 738 -997 
L 738 2988 
z
" transform="scale(0.015625)"/>
        <path id="DejaVuSerif-6c" d="M 1313 331 
L 1856 331 
L 1856 0 
L 184 0 
L 184 331 
L 738 331 
L 738 4531 
L 184 4531 
L 184 4863 
L 1313 4863 
L 1313 331 
z
" transform="scale(0.015625)"/>
       </defs>
       <use xlink:href="#DejaVuSerif-43"/>
       <use xlink:href="#DejaVuSerif-6f" x="76.513672"/>
       <use xlink:href="#DejaVuSerif-6d" x="136.71875"/>
       <use xlink:href="#DejaVuSerif-6d" x="231.542969"/>
       <use xlink:href="#DejaVuSerif-6f" x="326.367188"/>
       <use xlink:href="#DejaVuSerif-6e" x="386.572266"/>
       <use xlink:href="#DejaVuSerif-20" x="450.976562"/>
       <use xlink:href="#DejaVuSerif-50" x="482.763672"/>
       <use xlink:href="#DejaVuSerif-65" x="545.548828"/>
       <use xlink:href="#DejaVuSerif-6f" x="604.728516"/>
       <use xlink:href="#DejaVuSerif-70" x="664.933594"/>
       <use xlink:href="#DejaVuSerif-6c" x="728.947266"/>
       <use xlink:href="#DejaVuSerif-65" x="760.929688"/>
      </g>
     </g>
    </g>
    <g id="xtick_2">
     <g id="line2d_2">
      <g>
       <use xlink:href="#mcddd56a6f8" x="215.925288" y="441.124621" style="stroke: #000000; stroke-width: 0.8"/>
      </g>
     </g>
     <g id="text_2">
      <!-- Deities &amp; Immortals -->
      <g transform="translate(134.436756 533.905734) rotate(-45) scale(0.11 -0.11)">
       <defs>
        <path id="DejaVuSerif-44" d="M 1581 331 
L 2163 331 
Q 3072 331 3558 850 
Q 4044 1369 4044 2338 
Q 4044 3306 3559 3818 
Q 3075 4331 2163 4331 
L 1581 4331 
L 1581 331 
z
M 353 0 
L 353 331 
L 947 331 
L 947 4331 
L 353 4331 
L 353 4666 
L 2209 4666 
Q 3416 4666 4089 4050 
Q 4763 3434 4763 2338 
Q 4763 1238 4088 619 
Q 3413 0 2209 0 
L 353 0 
z
" transform="scale(0.015625)"/>
        <path id="DejaVuSerif-69" d="M 622 4353 
Q 622 4497 726 4603 
Q 831 4709 978 4709 
Q 1122 4709 1226 4603 
Q 1331 4497 1331 4353 
Q 1331 4206 1228 4103 
Q 1125 4000 978 4000 
Q 831 4000 726 4103 
Q 622 4206 622 4353 
z
M 1356 331 
L 1900 331 
L 1900 0 
L 231 0 
L 231 331 
L 781 331 
L 781 2988 
L 231 2988 
L 231 3322 
L 1356 3322 
L 1356 331 
z
" transform="scale(0.015625)"/>
        <path id="DejaVuSerif-74" d="M 691 2988 
L 184 2988 
L 184 3322 
L 691 3322 
L 691 4353 
L 1269 4353 
L 1269 3322 
L 2350 3322 
L 2350 2988 
L 1269 2988 
L 1269 878 
Q 1269 456 1350 337 
Q 1431 219 1650 219 
Q 1875 219 1978 351 
Q 2081 484 2088 781 
L 2522 781 
Q 2497 328 2275 118 
Q 2053 -91 1600 -91 
Q 1103 -91 897 129 
Q 691 350 691 878 
L 691 2988 
z
" transform="scale(0.015625)"/>
        <path id="DejaVuSerif-73" d="M 359 184 
L 359 959 
L 691 959 
Q 703 588 923 403 
Q 1144 219 1575 219 
Q 1963 219 2166 364 
Q 2369 509 2369 788 
Q 2369 1006 2220 1140 
Q 2072 1275 1594 1428 
L 1178 1569 
Q 750 1706 558 1912 
Q 366 2119 366 2438 
Q 366 2894 700 3153 
Q 1034 3413 1625 3413 
Q 1888 3413 2178 3344 
Q 2469 3275 2778 3144 
L 2778 2419 
L 2447 2419 
Q 2434 2741 2221 2922 
Q 2009 3103 1644 3103 
Q 1281 3103 1095 2975 
Q 909 2847 909 2591 
Q 909 2381 1050 2254 
Q 1191 2128 1613 1997 
L 2069 1856 
Q 2541 1709 2748 1489 
Q 2956 1269 2956 922 
Q 2956 450 2595 179 
Q 2234 -91 1600 -91 
Q 1278 -91 972 -22 
Q 666 47 359 184 
z
" transform="scale(0.015625)"/>
        <path id="DejaVuSerif-26" d="M 3456 722 
L 1638 2638 
Q 1366 2394 1230 2111 
Q 1094 1828 1094 1509 
Q 1094 991 1453 639 
Q 1813 288 2350 288 
Q 2669 288 2951 398 
Q 3234 509 3456 722 
z
M 5394 0 
L 4141 0 
L 3713 453 
Q 3384 178 3012 43 
Q 2641 -91 2209 -91 
Q 1403 -91 931 321 
Q 459 734 459 1441 
Q 459 1856 698 2217 
Q 938 2578 1422 2894 
Q 1263 3084 1188 3273 
Q 1113 3463 1113 3669 
Q 1113 4166 1470 4458 
Q 1828 4750 2444 4750 
Q 2653 4750 2933 4697 
Q 3213 4644 3572 4538 
L 3572 3731 
L 3219 3731 
Q 3175 4066 2975 4241 
Q 2775 4416 2431 4416 
Q 2109 4416 1909 4239 
Q 1709 4063 1709 3781 
Q 1709 3591 1815 3402 
Q 1922 3213 2259 2859 
L 3872 1159 
Q 4088 1409 4211 1698 
Q 4334 1988 4366 2316 
L 3803 2316 
L 3803 2650 
L 5281 2650 
L 5281 2316 
L 4744 2316 
Q 4691 1909 4536 1556 
Q 4381 1203 4122 903 
L 4659 331 
L 5394 331 
L 5394 0 
z
" transform="scale(0.015625)"/>
        <path id="DejaVuSerif-49" d="M 1581 331 
L 2175 331 
L 2175 0 
L 353 0 
L 353 331 
L 947 331 
L 947 4331 
L 353 4331 
L 353 4666 
L 2175 4666 
L 2175 4331 
L 1581 4331 
L 1581 331 
z
" transform="scale(0.015625)"/>
        <path id="DejaVuSerif-72" d="M 3059 3328 
L 3059 2497 
L 2728 2497 
Q 2713 2744 2591 2866 
Q 2469 2988 2234 2988 
Q 1809 2988 1582 2694 
Q 1356 2400 1356 1850 
L 1356 331 
L 2022 331 
L 2022 0 
L 263 0 
L 263 331 
L 781 331 
L 781 2994 
L 231 2994 
L 231 3322 
L 1356 3322 
L 1356 2731 
Q 1525 3078 1790 3245 
Q 2056 3413 2438 3413 
Q 2578 3413 2733 3391 
Q 2888 3369 3059 3328 
z
" transform="scale(0.015625)"/>
        <path id="DejaVuSerif-61" d="M 2547 1044 
L 2547 1747 
L 1806 1747 
Q 1378 1747 1168 1562 
Q 959 1378 959 997 
Q 959 650 1171 447 
Q 1384 244 1747 244 
Q 2106 244 2326 466 
Q 2547 688 2547 1044 
z
M 3122 2075 
L 3122 331 
L 3634 331 
L 3634 0 
L 2547 0 
L 2547 359 
Q 2356 128 2106 18 
Q 1856 -91 1522 -91 
Q 969 -91 644 203 
Q 319 497 319 997 
Q 319 1513 691 1797 
Q 1063 2081 1741 2081 
L 2547 2081 
L 2547 2309 
Q 2547 2688 2317 2895 
Q 2088 3103 1672 3103 
Q 1328 3103 1125 2947 
Q 922 2791 872 2484 
L 575 2484 
L 575 3156 
Q 875 3284 1158 3348 
Q 1441 3413 1709 3413 
Q 2400 3413 2761 3070 
Q 3122 2728 3122 2075 
z
" transform="scale(0.015625)"/>
       </defs>
       <use xlink:href="#DejaVuSerif-44"/>
       <use xlink:href="#DejaVuSerif-65" x="80.175781"/>
       <use xlink:href="#DejaVuSerif-69" x="139.355469"/>
       <use xlink:href="#DejaVuSerif-74" x="171.337891"/>
       <use xlink:href="#DejaVuSerif-69" x="211.523438"/>
       <use xlink:href="#DejaVuSerif-65" x="243.505859"/>
       <use xlink:href="#DejaVuSerif-73" x="302.685547"/>
       <use xlink:href="#DejaVuSerif-20" x="354.003906"/>
       <use xlink:href="#DejaVuSerif-26" x="385.791016"/>
       <use xlink:href="#DejaVuSerif-20" x="474.804688"/>
       <use xlink:href="#DejaVuSerif-49" x="506.591797"/>
       <use xlink:href="#DejaVuSerif-6d" x="546.09375"/>
       <use xlink:href="#DejaVuSerif-6d" x="640.917969"/>
       <use xlink:href="#DejaVuSerif-6f" x="735.742188"/>
       <use xlink:href="#DejaVuSerif-72" x="795.947266"/>
       <use xlink:href="#DejaVuSerif-74" x="843.75"/>
       <use xlink:href="#DejaVuSerif-61" x="883.935547"/>
       <use xlink:href="#DejaVuSerif-6c" x="943.554688"/>
       <use xlink:href="#DejaVuSerif-73" x="975.537109"/>
      </g>
     </g>
    </g>
    <g id="xtick_3">
     <g id="line2d_3">
      <g>
       <use xlink:href="#mcddd56a6f8" x="303.168331" y="441.124621" style="stroke: #000000; stroke-width: 0.8"/>
      </g>
     </g>
     <g id="text_3">
      <!-- Emperors &amp; Generals -->
      <g transform="translate(215.671159 539.914373) rotate(-45) scale(0.11 -0.11)">
       <defs>
        <path id="DejaVuSerif-45" d="M 353 0 
L 353 331 
L 947 331 
L 947 4331 
L 353 4331 
L 353 4666 
L 4109 4666 
L 4109 3628 
L 3725 3628 
L 3725 4281 
L 1581 4281 
L 1581 2719 
L 3109 2719 
L 3109 3303 
L 3494 3303 
L 3494 1753 
L 3109 1753 
L 3109 2338 
L 1581 2338 
L 1581 384 
L 3775 384 
L 3775 1038 
L 4159 1038 
L 4159 0 
L 353 0 
z
" transform="scale(0.015625)"/>
        <path id="DejaVuSerif-47" d="M 4097 3272 
Q 3988 3856 3641 4136 
Q 3294 4416 2675 4416 
Q 1869 4416 1472 3897 
Q 1075 3378 1075 2328 
Q 1075 1300 1484 772 
Q 1894 244 2688 244 
Q 3041 244 3362 331 
Q 3684 419 3975 594 
L 3975 1797 
L 3097 1797 
L 3097 2131 
L 4609 2131 
L 4609 391 
Q 4194 150 3714 29 
Q 3234 -91 2688 -91 
Q 1631 -91 995 570 
Q 359 1231 359 2328 
Q 359 3434 996 4092 
Q 1634 4750 2713 4750 
Q 3113 4750 3539 4658 
Q 3966 4566 4447 4378 
L 4447 3272 
L 4097 3272 
z
" transform="scale(0.015625)"/>
       </defs>
       <use xlink:href="#DejaVuSerif-45"/>
       <use xlink:href="#DejaVuSerif-6d" x="72.998047"/>
       <use xlink:href="#DejaVuSerif-70" x="167.822266"/>
       <use xlink:href="#DejaVuSerif-65" x="231.835938"/>
       <use xlink:href="#DejaVuSerif-72" x="291.015625"/>
       <use xlink:href="#DejaVuSerif-6f" x="338.818359"/>
       <use xlink:href="#DejaVuSerif-72" x="399.023438"/>
       <use xlink:href="#DejaVuSerif-73" x="446.826172"/>
       <use xlink:href="#DejaVuSerif-20" x="498.144531"/>
       <use xlink:href="#DejaVuSerif-26" x="529.931641"/>
       <use xlink:href="#DejaVuSerif-20" x="618.945312"/>
       <use xlink:href="#DejaVuSerif-47" x="650.732422"/>
       <use xlink:href="#DejaVuSerif-65" x="730.615234"/>
       <use xlink:href="#DejaVuSerif-6e" x="789.794922"/>
       <use xlink:href="#DejaVuSerif-65" x="854.199219"/>
       <use xlink:href="#DejaVuSerif-72" x="913.378906"/>
       <use xlink:href="#DejaVuSerif-61" x="961.181641"/>
       <use xlink:href="#DejaVuSerif-6c" x="1020.800781"/>
       <use xlink:href="#DejaVuSerif-73" x="1052.783203"/>
      </g>
     </g>
    </g>
    <g id="xtick_4">
     <g id="line2d_4">
      <g>
       <use xlink:href="#mcddd56a6f8" x="390.411373" y="441.124621" style="stroke: #000000; stroke-width: 0.8"/>
      </g>
     </g>
     <g id="text_4">
      <!-- Filial Exemplars -->
      <g transform="translate(324.477975 518.3506) rotate(-45) scale(0.11 -0.11)">
       <defs>
        <path id="DejaVuSerif-46" d="M 353 0 
L 353 331 
L 947 331 
L 947 4331 
L 353 4331 
L 353 4666 
L 4172 4666 
L 4172 3628 
L 3788 3628 
L 3788 4281 
L 1581 4281 
L 1581 2719 
L 3175 2719 
L 3175 3303 
L 3559 3303 
L 3559 1753 
L 3175 1753 
L 3175 2338 
L 1581 2338 
L 1581 331 
L 2328 331 
L 2328 0 
L 353 0 
z
" transform="scale(0.015625)"/>
        <path id="DejaVuSerif-78" d="M 1863 2028 
L 2559 2988 
L 2113 2988 
L 2113 3322 
L 3391 3322 
L 3391 2988 
L 2950 2988 
L 2059 1759 
L 3097 331 
L 3531 331 
L 3531 0 
L 1997 0 
L 1997 331 
L 2419 331 
L 1697 1325 
L 972 331 
L 1403 331 
L 1403 0 
L 141 0 
L 141 331 
L 581 331 
L 1497 1594 
L 488 2988 
L 78 2988 
L 78 3322 
L 1563 3322 
L 1563 2988 
L 1166 2988 
L 1863 2028 
z
" transform="scale(0.015625)"/>
       </defs>
       <use xlink:href="#DejaVuSerif-46"/>
       <use xlink:href="#DejaVuSerif-69" x="69.384766"/>
       <use xlink:href="#DejaVuSerif-6c" x="101.367188"/>
       <use xlink:href="#DejaVuSerif-69" x="133.349609"/>
       <use xlink:href="#DejaVuSerif-61" x="165.332031"/>
       <use xlink:href="#DejaVuSerif-6c" x="224.951172"/>
       <use xlink:href="#DejaVuSerif-20" x="256.933594"/>
       <use xlink:href="#DejaVuSerif-45" x="288.720703"/>
       <use xlink:href="#DejaVuSerif-78" x="361.71875"/>
       <use xlink:href="#DejaVuSerif-65" x="418.115234"/>
       <use xlink:href="#DejaVuSerif-6d" x="477.294922"/>
       <use xlink:href="#DejaVuSerif-70" x="572.119141"/>
       <use xlink:href="#DejaVuSerif-6c" x="636.132812"/>
       <use xlink:href="#DejaVuSerif-61" x="668.115234"/>
       <use xlink:href="#DejaVuSerif-72" x="727.734375"/>
       <use xlink:href="#DejaVuSerif-73" x="775.537109"/>
      </g>
     </g>
    </g>
    <g id="xtick_5">
     <g id="line2d_5">
      <g>
       <use xlink:href="#mcddd56a6f8" x="477.654416" y="441.124621" style="stroke: #000000; stroke-width: 0.8"/>
      </g>
     </g>
     <g id="text_5">
      <!-- Loyal Ministers -->
      <g transform="translate(414.707108 515.253914) rotate(-45) scale(0.11 -0.11)">
       <defs>
        <path id="DejaVuSerif-4c" d="M 353 0 
L 353 331 
L 947 331 
L 947 4331 
L 353 4331 
L 353 4666 
L 2175 4666 
L 2175 4331 
L 1581 4331 
L 1581 384 
L 3713 384 
L 3713 1166 
L 4097 1166 
L 4097 0 
L 353 0 
z
" transform="scale(0.015625)"/>
        <path id="DejaVuSerif-79" d="M 1381 -609 
L 1600 -56 
L 359 2988 
L -19 2988 
L -19 3322 
L 1509 3322 
L 1509 2988 
L 978 2988 
L 1913 703 
L 2847 2988 
L 2350 2988 
L 2350 3322 
L 3597 3322 
L 3597 2988 
L 3225 2988 
L 1703 -750 
Q 1547 -1138 1356 -1280 
Q 1166 -1422 819 -1422 
Q 672 -1422 517 -1397 
Q 363 -1372 206 -1325 
L 206 -691 
L 500 -691 
Q 519 -903 608 -995 
Q 697 -1088 884 -1088 
Q 1056 -1088 1161 -992 
Q 1266 -897 1381 -609 
z
" transform="scale(0.015625)"/>
        <path id="DejaVuSerif-4d" d="M 353 0 
L 353 331 
L 947 331 
L 947 4331 
L 319 4331 
L 319 4666 
L 1678 4666 
L 3316 1344 
L 4953 4666 
L 6228 4666 
L 6228 4331 
L 5606 4331 
L 5606 331 
L 6203 331 
L 6203 0 
L 4378 0 
L 4378 331 
L 4972 331 
L 4972 3938 
L 3372 684 
L 2931 684 
L 1331 3938 
L 1331 331 
L 1925 331 
L 1925 0 
L 353 0 
z
" transform="scale(0.015625)"/>
       </defs>
       <use xlink:href="#DejaVuSerif-4c"/>
       <use xlink:href="#DejaVuSerif-6f" x="66.40625"/>
       <use xlink:href="#DejaVuSerif-79" x="126.611328"/>
       <use xlink:href="#DejaVuSerif-61" x="183.105469"/>
       <use xlink:href="#DejaVuSerif-6c" x="242.724609"/>
       <use xlink:href="#DejaVuSerif-20" x="274.707031"/>
       <use xlink:href="#DejaVuSerif-4d" x="306.494141"/>
       <use xlink:href="#DejaVuSerif-69" x="408.886719"/>
       <use xlink:href="#DejaVuSerif-6e" x="440.869141"/>
       <use xlink:href="#DejaVuSerif-69" x="505.273438"/>
       <use xlink:href="#DejaVuSerif-73" x="537.255859"/>
       <use xlink:href="#DejaVuSerif-74" x="588.574219"/>
       <use xlink:href="#DejaVuSerif-65" x="628.759766"/>
       <use xlink:href="#DejaVuSerif-72" x="687.939453"/>
       <use xlink:href="#DejaVuSerif-73" x="735.742188"/>
      </g>
     </g>
    </g>
    <g id="xtick_6">
     <g id="line2d_6">
      <g>
       <use xlink:href="#mcddd56a6f8" x="564.897459" y="441.124621" style="stroke: #000000; stroke-width: 0.8"/>
      </g>
     </g>
     <g id="text_6">
      <!-- Puppet Accomplices -->
      <g transform="translate(483.583936 533.730725) rotate(-45) scale(0.11 -0.11)">
       <defs>
        <path id="DejaVuSerif-75" d="M 2266 3322 
L 3341 3322 
L 3341 331 
L 3884 331 
L 3884 0 
L 2766 0 
L 2766 588 
Q 2606 256 2353 82 
Q 2100 -91 1766 -91 
Q 1213 -91 952 223 
Q 691 538 691 1209 
L 691 2988 
L 172 2988 
L 172 3322 
L 1269 3322 
L 1269 1388 
Q 1269 781 1417 556 
Q 1566 331 1947 331 
Q 2347 331 2556 625 
Q 2766 919 2766 1478 
L 2766 2988 
L 2266 2988 
L 2266 3322 
z
" transform="scale(0.015625)"/>
        <path id="DejaVuSerif-41" d="M 1281 1691 
L 2994 1691 
L 2138 3909 
L 1281 1691 
z
M -38 0 
L -38 331 
L 372 331 
L 2034 4666 
L 2559 4666 
L 4225 331 
L 4684 331 
L 4684 0 
L 2988 0 
L 2988 331 
L 3506 331 
L 3116 1356 
L 1153 1356 
L 763 331 
L 1275 331 
L 1275 0 
L -38 0 
z
" transform="scale(0.015625)"/>
        <path id="DejaVuSerif-63" d="M 3291 997 
Q 3169 466 2822 187 
Q 2475 -91 1925 -91 
Q 1200 -91 759 389 
Q 319 869 319 1663 
Q 319 2459 759 2936 
Q 1200 3413 1925 3413 
Q 2241 3413 2553 3339 
Q 2866 3266 3181 3116 
L 3181 2266 
L 2847 2266 
Q 2781 2703 2561 2903 
Q 2341 3103 1931 3103 
Q 1466 3103 1228 2742 
Q 991 2381 991 1663 
Q 991 944 1227 581 
Q 1463 219 1931 219 
Q 2303 219 2525 412 
Q 2747 606 2828 997 
L 3291 997 
z
" transform="scale(0.015625)"/>
       </defs>
       <use xlink:href="#DejaVuSerif-50"/>
       <use xlink:href="#DejaVuSerif-75" x="67.285156"/>
       <use xlink:href="#DejaVuSerif-70" x="131.689453"/>
       <use xlink:href="#DejaVuSerif-70" x="195.703125"/>
       <use xlink:href="#DejaVuSerif-65" x="259.716797"/>
       <use xlink:href="#DejaVuSerif-74" x="318.896484"/>
       <use xlink:href="#DejaVuSerif-20" x="359.082031"/>
       <use xlink:href="#DejaVuSerif-41" x="390.869141"/>
       <use xlink:href="#DejaVuSerif-63" x="463.085938"/>
       <use xlink:href="#DejaVuSerif-63" x="519.091797"/>
       <use xlink:href="#DejaVuSerif-6f" x="575.097656"/>
       <use xlink:href="#DejaVuSerif-6d" x="635.302734"/>
       <use xlink:href="#DejaVuSerif-70" x="730.126953"/>
       <use xlink:href="#DejaVuSerif-6c" x="794.140625"/>
       <use xlink:href="#DejaVuSerif-69" x="826.123047"/>
       <use xlink:href="#DejaVuSerif-63" x="858.105469"/>
       <use xlink:href="#DejaVuSerif-65" x="914.111328"/>
       <use xlink:href="#DejaVuSerif-73" x="973.291016"/>
      </g>
     </g>
    </g>
    <g id="xtick_7">
     <g id="line2d_7">
      <g>
       <use xlink:href="#mcddd56a6f8" x="652.140502" y="441.124621" style="stroke: #000000; stroke-width: 0.8"/>
      </g>
     </g>
     <g id="text_7">
      <!-- Scholars &amp; Beauties -->
      <g transform="translate(570.269137 534.288566) rotate(-45) scale(0.11 -0.11)">
       <defs>
        <path id="DejaVuSerif-53" d="M 594 225 
L 594 1288 
L 953 1284 
Q 969 753 1261 498 
Q 1553 244 2150 244 
Q 2706 244 2998 464 
Q 3291 684 3291 1106 
Q 3291 1444 3114 1625 
Q 2938 1806 2369 1978 
L 1753 2163 
Q 1084 2366 811 2669 
Q 538 2972 538 3500 
Q 538 4094 959 4422 
Q 1381 4750 2144 4750 
Q 2469 4750 2856 4679 
Q 3244 4609 3681 4475 
L 3681 3481 
L 3328 3481 
Q 3275 3975 2998 4195 
Q 2722 4416 2156 4416 
Q 1663 4416 1405 4214 
Q 1147 4013 1147 3628 
Q 1147 3294 1340 3103 
Q 1534 2913 2163 2725 
L 2741 2553 
Q 3375 2363 3645 2067 
Q 3916 1772 3916 1275 
Q 3916 597 3481 253 
Q 3047 -91 2188 -91 
Q 1803 -91 1404 -12 
Q 1006 66 594 225 
z
" transform="scale(0.015625)"/>
        <path id="DejaVuSerif-68" d="M 263 0 
L 263 331 
L 781 331 
L 781 4531 
L 231 4531 
L 231 4863 
L 1356 4863 
L 1356 2731 
Q 1516 3069 1770 3241 
Q 2025 3413 2363 3413 
Q 2913 3413 3172 3097 
Q 3431 2781 3431 2113 
L 3431 331 
L 3944 331 
L 3944 0 
L 2356 0 
L 2356 331 
L 2853 331 
L 2853 1931 
Q 2853 2541 2704 2764 
Q 2556 2988 2175 2988 
Q 1775 2988 1565 2697 
Q 1356 2406 1356 1850 
L 1356 331 
L 1856 331 
L 1856 0 
L 263 0 
z
" transform="scale(0.015625)"/>
        <path id="DejaVuSerif-42" d="M 1581 331 
L 2516 331 
Q 3078 331 3337 575 
Q 3597 819 3597 1350 
Q 3597 1878 3339 2120 
Q 3081 2363 2516 2363 
L 1581 2363 
L 1581 331 
z
M 1581 2694 
L 2375 2694 
Q 2888 2694 3123 2891 
Q 3359 3088 3359 3513 
Q 3359 3941 3123 4136 
Q 2888 4331 2375 4331 
L 1581 4331 
L 1581 2694 
z
M 353 0 
L 353 331 
L 947 331 
L 947 4331 
L 353 4331 
L 353 4666 
L 2656 4666 
Q 3363 4666 3720 4377 
Q 4078 4088 4078 3513 
Q 4078 3097 3829 2850 
Q 3581 2603 3103 2547 
Q 3697 2472 4005 2167 
Q 4313 1863 4313 1350 
Q 4313 656 3875 328 
Q 3438 0 2509 0 
L 353 0 
z
" transform="scale(0.015625)"/>
       </defs>
       <use xlink:href="#DejaVuSerif-53"/>
       <use xlink:href="#DejaVuSerif-63" x="68.505859"/>
       <use xlink:href="#DejaVuSerif-68" x="124.511719"/>
       <use xlink:href="#DejaVuSerif-6f" x="188.916016"/>
       <use xlink:href="#DejaVuSerif-6c" x="249.121094"/>
       <use xlink:href="#DejaVuSerif-61" x="281.103516"/>
       <use xlink:href="#DejaVuSerif-72" x="340.722656"/>
       <use xlink:href="#DejaVuSerif-73" x="388.525391"/>
       <use xlink:href="#DejaVuSerif-20" x="439.84375"/>
       <use xlink:href="#DejaVuSerif-26" x="471.630859"/>
       <use xlink:href="#DejaVuSerif-20" x="560.644531"/>
       <use xlink:href="#DejaVuSerif-42" x="592.431641"/>
       <use xlink:href="#DejaVuSerif-65" x="665.917969"/>
       <use xlink:href="#DejaVuSerif-61" x="725.097656"/>
       <use xlink:href="#DejaVuSerif-75" x="784.716797"/>
       <use xlink:href="#DejaVuSerif-74" x="849.121094"/>
       <use xlink:href="#DejaVuSerif-69" x="889.306641"/>
       <use xlink:href="#DejaVuSerif-65" x="921.289062"/>
       <use xlink:href="#DejaVuSerif-73" x="980.46875"/>
      </g>
     </g>
    </g>
    <g id="xtick_8">
     <g id="line2d_8">
      <g>
       <use xlink:href="#mcddd56a6f8" x="739.383544" y="441.124621" style="stroke: #000000; stroke-width: 0.8"/>
      </g>
     </g>
     <g id="text_8">
      <!-- Spiritual Animals -->
      <g transform="translate(669.42494 522.375805) rotate(-45) scale(0.11 -0.11)">
       <use xlink:href="#DejaVuSerif-53"/>
       <use xlink:href="#DejaVuSerif-70" x="68.505859"/>
       <use xlink:href="#DejaVuSerif-69" x="132.519531"/>
       <use xlink:href="#DejaVuSerif-72" x="164.501953"/>
       <use xlink:href="#DejaVuSerif-69" x="212.304688"/>
       <use xlink:href="#DejaVuSerif-74" x="244.287109"/>
       <use xlink:href="#DejaVuSerif-75" x="284.472656"/>
       <use xlink:href="#DejaVuSerif-61" x="348.876953"/>
       <use xlink:href="#DejaVuSerif-6c" x="408.496094"/>
       <use xlink:href="#DejaVuSerif-20" x="440.478516"/>
       <use xlink:href="#DejaVuSerif-41" x="472.265625"/>
       <use xlink:href="#DejaVuSerif-6e" x="544.482422"/>
       <use xlink:href="#DejaVuSerif-69" x="608.886719"/>
       <use xlink:href="#DejaVuSerif-6d" x="640.869141"/>
       <use xlink:href="#DejaVuSerif-61" x="735.693359"/>
       <use xlink:href="#DejaVuSerif-6c" x="795.3125"/>
       <use xlink:href="#DejaVuSerif-73" x="827.294922"/>
      </g>
     </g>
    </g>
    <g id="xtick_9">
     <g id="line2d_9">
      <g>
       <use xlink:href="#mcddd56a6f8" x="826.626587" y="441.124621" style="stroke: #000000; stroke-width: 0.8"/>
      </g>
     </g>
     <g id="text_9">
      <!-- Villains -->
      <g transform="translate(795.938042 483.105746) rotate(-45) scale(0.11 -0.11)">
       <defs>
        <path id="DejaVuSerif-56" d="M 1119 4331 
L 2497 750 
L 3872 4331 
L 3347 4331 
L 3347 4666 
L 4716 4666 
L 4716 4331 
L 4263 4331 
L 2597 0 
L 2059 0 
L 403 4331 
L -63 4331 
L -63 4666 
L 1638 4666 
L 1638 4331 
L 1119 4331 
z
" transform="scale(0.015625)"/>
       </defs>
       <use xlink:href="#DejaVuSerif-56"/>
       <use xlink:href="#DejaVuSerif-69" x="70.466797"/>
       <use xlink:href="#DejaVuSerif-6c" x="102.449219"/>
       <use xlink:href="#DejaVuSerif-6c" x="134.431641"/>
       <use xlink:href="#DejaVuSerif-61" x="166.414062"/>
       <use xlink:href="#DejaVuSerif-69" x="226.033203"/>
       <use xlink:href="#DejaVuSerif-6e" x="258.015625"/>
       <use xlink:href="#DejaVuSerif-73" x="322.419922"/>
      </g>
     </g>
    </g>
    <g id="xtick_10">
     <g id="line2d_10">
      <g>
       <use xlink:href="#mcddd56a6f8" x="913.86963" y="441.124621" style="stroke: #000000; stroke-width: 0.8"/>
      </g>
     </g>
     <g id="text_10">
      <!-- Virtuous Women -->
      <g transform="translate(847.132892 519.153939) rotate(-45) scale(0.11 -0.11)">
       <defs>
        <path id="DejaVuSerif-57" d="M 4878 0 
L 4366 0 
L 3297 3794 
L 2228 0 
L 1716 0 
L 494 4331 
L 31 4331 
L 31 4666 
L 1734 4666 
L 1734 4331 
L 1153 4331 
L 2125 884 
L 3188 4666 
L 3694 4666 
L 4775 844 
L 5753 4331 
L 5216 4331 
L 5216 4666 
L 6559 4666 
L 6559 4331 
L 6100 4331 
L 4878 0 
z
" transform="scale(0.015625)"/>
       </defs>
       <use xlink:href="#DejaVuSerif-56"/>
       <use xlink:href="#DejaVuSerif-69" x="70.466797"/>
       <use xlink:href="#DejaVuSerif-72" x="102.449219"/>
       <use xlink:href="#DejaVuSerif-74" x="150.251953"/>
       <use xlink:href="#DejaVuSerif-75" x="190.4375"/>
       <use xlink:href="#DejaVuSerif-6f" x="254.841797"/>
       <use xlink:href="#DejaVuSerif-75" x="315.046875"/>
       <use xlink:href="#DejaVuSerif-73" x="379.451172"/>
       <use xlink:href="#DejaVuSerif-20" x="430.769531"/>
       <use xlink:href="#DejaVuSerif-57" x="462.556641"/>
       <use xlink:href="#DejaVuSerif-6f" x="558.589844"/>
       <use xlink:href="#DejaVuSerif-6d" x="618.794922"/>
       <use xlink:href="#DejaVuSerif-65" x="713.619141"/>
       <use xlink:href="#DejaVuSerif-6e" x="772.798828"/>
      </g>
     </g>
    </g>
    <g id="text_11">
     <!-- Character Role Types -->
     <g transform="translate(437.948594 556.169803) scale(0.14 -0.14)">
      <defs>
       <path id="DejaVuSerif-Bold-43" d="M 4769 1331 
Q 4584 609 4106 259 
Q 3628 -91 2822 -91 
Q 1641 -91 955 561 
Q 269 1213 269 2328 
Q 269 3447 955 4098 
Q 1641 4750 2822 4750 
Q 3238 4750 3688 4650 
Q 4138 4550 4641 4347 
L 4641 3200 
L 4244 3200 
Q 4122 3788 3800 4080 
Q 3478 4372 2950 4372 
Q 2269 4372 1937 3870 
Q 1606 3369 1606 2328 
Q 1606 1288 1937 788 
Q 2269 288 2956 288 
Q 3422 288 3717 547 
Q 4013 806 4147 1331 
L 4769 1331 
z
" transform="scale(0.015625)"/>
       <path id="DejaVuSerif-Bold-68" d="M 219 0 
L 219 378 
L 691 378 
L 691 4488 
L 197 4488 
L 197 4863 
L 1797 4863 
L 1797 2853 
Q 1997 3150 2253 3281 
Q 2509 3413 2900 3413 
Q 3459 3413 3745 3083 
Q 4031 2753 4031 2113 
L 4031 378 
L 4506 378 
L 4506 0 
L 2522 0 
L 2522 378 
L 2925 378 
L 2925 2144 
Q 2925 2566 2817 2730 
Q 2709 2894 2444 2894 
Q 2109 2894 1953 2648 
Q 1797 2403 1797 1869 
L 1797 378 
L 2203 378 
L 2203 0 
L 219 0 
z
" transform="scale(0.015625)"/>
       <path id="DejaVuSerif-Bold-61" d="M 3525 2041 
L 3525 378 
L 4000 378 
L 4000 0 
L 2419 0 
L 2419 422 
Q 2200 159 1931 34 
Q 1663 -91 1319 -91 
Q 809 -91 536 182 
Q 263 456 263 966 
Q 263 1525 655 1803 
Q 1047 2081 1838 2081 
L 2419 2081 
L 2419 2278 
Q 2419 2681 2228 2873 
Q 2038 3066 1638 3066 
Q 1306 3066 1126 2930 
Q 947 2794 872 2484 
L 519 2484 
L 519 3200 
Q 816 3306 1134 3359 
Q 1453 3413 1806 3413 
Q 2697 3413 3111 3081 
Q 3525 2750 3525 2041 
z
M 2419 1044 
L 2419 1709 
L 2003 1709 
Q 1694 1709 1528 1540 
Q 1363 1372 1363 1056 
Q 1363 741 1483 584 
Q 1603 428 1850 428 
Q 2106 428 2262 597 
Q 2419 766 2419 1044 
z
" transform="scale(0.015625)"/>
       <path id="DejaVuSerif-Bold-72" d="M 3438 3359 
L 3438 2369 
L 3084 2369 
Q 3066 2634 2941 2764 
Q 2816 2894 2578 2894 
Q 2216 2894 2006 2575 
Q 1797 2256 1797 1691 
L 1797 378 
L 2400 378 
L 2400 0 
L 219 0 
L 219 378 
L 691 378 
L 691 2944 
L 184 2944 
L 184 3322 
L 1797 3322 
L 1797 2731 
Q 1959 3078 2226 3245 
Q 2494 3413 2881 3413 
Q 2978 3413 3117 3398 
Q 3256 3384 3438 3359 
z
" transform="scale(0.015625)"/>
       <path id="DejaVuSerif-Bold-63" d="M 3609 1038 
Q 3491 469 3123 189 
Q 2756 -91 2125 -91 
Q 1238 -91 750 368 
Q 263 828 263 1663 
Q 263 2488 744 2950 
Q 1225 3413 2081 3413 
Q 2428 3413 2781 3347 
Q 3134 3281 3500 3150 
L 3500 2228 
L 3150 2228 
Q 3100 2650 2903 2854 
Q 2706 3059 2350 3059 
Q 1888 3059 1692 2746 
Q 1497 2434 1497 1663 
Q 1497 909 1687 586 
Q 1878 263 2309 263 
Q 2644 263 2845 463 
Q 3047 663 3091 1038 
L 3609 1038 
z
" transform="scale(0.015625)"/>
       <path id="DejaVuSerif-Bold-74" d="M 634 2944 
L 153 2944 
L 153 3322 
L 634 3322 
L 634 4353 
L 1741 4353 
L 1741 3322 
L 2663 3322 
L 2663 2944 
L 1741 2944 
L 1741 909 
Q 1741 475 1809 369 
Q 1878 263 2059 263 
Q 2259 263 2356 397 
Q 2453 531 2459 813 
L 2925 813 
Q 2897 313 2651 111 
Q 2406 -91 1806 -91 
Q 1122 -91 878 123 
Q 634 338 634 909 
L 634 2944 
z
" transform="scale(0.015625)"/>
       <path id="DejaVuSerif-Bold-65" d="M 2566 1875 
Q 2566 2531 2444 2795 
Q 2322 3059 2028 3059 
Q 1744 3059 1620 2800 
Q 1497 2541 1497 1931 
L 1497 1875 
L 2566 1875 
z
M 3781 1503 
L 1497 1503 
L 1497 1478 
Q 1497 834 1690 548 
Q 1884 263 2316 263 
Q 2675 263 2897 453 
Q 3119 644 3181 1006 
L 3700 1006 
Q 3566 441 3166 175 
Q 2766 -91 2047 -91 
Q 1184 -91 723 364 
Q 263 819 263 1663 
Q 263 2488 734 2950 
Q 1206 3413 2047 3413 
Q 2872 3413 3312 2927 
Q 3753 2441 3781 1503 
z
" transform="scale(0.015625)"/>
       <path id="DejaVuSerif-Bold-20" transform="scale(0.015625)"/>
       <path id="DejaVuSerif-Bold-52" d="M 3397 2278 
Q 3675 2238 3865 2094 
Q 4056 1950 4197 1678 
L 4878 378 
L 5356 378 
L 5356 0 
L 3822 0 
L 3078 1409 
Q 2863 1847 2711 1967 
Q 2559 2088 2291 2088 
L 2100 2088 
L 2100 378 
L 2700 378 
L 2700 0 
L 300 0 
L 300 378 
L 897 378 
L 897 4288 
L 300 4288 
L 300 4666 
L 2963 4666 
Q 3775 4666 4217 4339 
Q 4659 4013 4659 3413 
Q 4659 2925 4345 2642 
Q 4031 2359 3397 2278 
z
M 2100 2463 
L 2509 2463 
Q 2947 2463 3183 2700 
Q 3419 2938 3419 3378 
Q 3419 3819 3183 4053 
Q 2947 4288 2509 4288 
L 2100 4288 
L 2100 2463 
z
" transform="scale(0.015625)"/>
       <path id="DejaVuSerif-Bold-6f" d="M 2138 263 
Q 2488 263 2630 563 
Q 2772 863 2772 1663 
Q 2772 2463 2631 2761 
Q 2491 3059 2138 3059 
Q 1784 3059 1640 2757 
Q 1497 2456 1497 1663 
Q 1497 869 1640 566 
Q 1784 263 2138 263 
z
M 2138 -91 
Q 1259 -91 761 376 
Q 263 844 263 1663 
Q 263 2484 761 2948 
Q 1259 3413 2138 3413 
Q 3019 3413 3516 2948 
Q 4013 2484 4013 1663 
Q 4013 844 3514 376 
Q 3016 -91 2138 -91 
z
" transform="scale(0.015625)"/>
       <path id="DejaVuSerif-Bold-6c" d="M 1797 378 
L 2272 378 
L 2272 0 
L 219 0 
L 219 378 
L 691 378 
L 691 4488 
L 219 4488 
L 219 4863 
L 1797 4863 
L 1797 378 
z
" transform="scale(0.015625)"/>
       <path id="DejaVuSerif-Bold-54" d="M 1159 0 
L 1159 378 
L 1778 378 
L 1778 4238 
L 500 4238 
L 500 3500 
L 72 3500 
L 72 4666 
L 4697 4666 
L 4697 3500 
L 4275 3500 
L 4275 4238 
L 2988 4238 
L 2988 378 
L 3609 378 
L 3609 0 
L 1159 0 
z
" transform="scale(0.015625)"/>
       <path id="DejaVuSerif-Bold-79" d="M 1997 -750 
Q 1847 -1116 1634 -1269 
Q 1422 -1422 1063 -1422 
Q 909 -1422 721 -1387 
Q 534 -1353 313 -1288 
L 313 -594 
L 666 -597 
Q 675 -838 779 -953 
Q 884 -1069 1094 -1069 
Q 1297 -1069 1422 -958 
Q 1547 -847 1672 -538 
L 1722 -422 
L 275 2944 
L -84 2944 
L -84 3322 
L 1831 3322 
L 1831 2944 
L 1434 2944 
L 2278 978 
L 3066 2944 
L 2625 2944 
L 2625 3322 
L 3872 3322 
L 3872 2944 
L 3469 2944 
L 1997 -750 
z
" transform="scale(0.015625)"/>
       <path id="DejaVuSerif-Bold-70" d="M 1728 1825 
L 1728 1497 
Q 1728 916 1876 656 
Q 2025 397 2356 397 
Q 2697 397 2836 672 
Q 2975 947 2975 1663 
Q 2975 2378 2836 2651 
Q 2697 2925 2356 2925 
Q 2025 2925 1876 2665 
Q 1728 2406 1728 1825 
z
M 622 2944 
L 147 2944 
L 147 3322 
L 1728 3322 
L 1728 2900 
Q 1869 3159 2106 3286 
Q 2344 3413 2694 3413 
Q 3403 3413 3811 2945 
Q 4219 2478 4219 1663 
Q 4219 847 3811 378 
Q 3403 -91 2694 -91 
Q 2344 -91 2106 36 
Q 1869 163 1728 422 
L 1728 -953 
L 2241 -953 
L 2241 -1331 
L 147 -1331 
L 147 -953 
L 622 -953 
L 622 2944 
z
" transform="scale(0.015625)"/>
       <path id="DejaVuSerif-Bold-73" d="M 300 97 
L 300 1025 
L 653 1025 
Q 697 653 931 458 
Q 1166 263 1569 263 
Q 1906 263 2086 380 
Q 2266 497 2266 716 
Q 2266 916 2152 1025 
Q 2038 1134 1709 1216 
L 1253 1331 
Q 738 1459 506 1698 
Q 275 1938 275 2344 
Q 275 2884 650 3148 
Q 1025 3413 1806 3413 
Q 2100 3413 2433 3364 
Q 2766 3316 3169 3213 
L 3169 2375 
L 2816 2375 
Q 2788 2716 2573 2887 
Q 2359 3059 1959 3059 
Q 1622 3059 1448 2951 
Q 1275 2844 1275 2638 
Q 1275 2469 1375 2372 
Q 1475 2275 1734 2209 
L 2188 2094 
Q 2841 1928 3091 1684 
Q 3341 1441 3341 1006 
Q 3341 444 2939 176 
Q 2538 -91 1691 -91 
Q 1381 -91 1034 -44 
Q 688 3 300 97 
z
" transform="scale(0.015625)"/>
      </defs>
      <use xlink:href="#DejaVuSerif-Bold-43"/>
      <use xlink:href="#DejaVuSerif-Bold-68" x="79.589844"/>
      <use xlink:href="#DejaVuSerif-Bold-61" x="152.294922"/>
      <use xlink:href="#DejaVuSerif-Bold-72" x="217.089844"/>
      <use xlink:href="#DejaVuSerif-Bold-61" x="269.775391"/>
      <use xlink:href="#DejaVuSerif-Bold-63" x="334.570312"/>
      <use xlink:href="#DejaVuSerif-Bold-74" x="395.458984"/>
      <use xlink:href="#DejaVuSerif-Bold-65" x="441.650391"/>
      <use xlink:href="#DejaVuSerif-Bold-72" x="505.273438"/>
      <use xlink:href="#DejaVuSerif-Bold-20" x="557.958984"/>
      <use xlink:href="#DejaVuSerif-Bold-52" x="592.773438"/>
      <use xlink:href="#DejaVuSerif-Bold-6f" x="675.878906"/>
      <use xlink:href="#DejaVuSerif-Bold-6c" x="742.578125"/>
      <use xlink:href="#DejaVuSerif-Bold-65" x="780.566406"/>
      <use xlink:href="#DejaVuSerif-Bold-20" x="844.189453"/>
      <use xlink:href="#DejaVuSerif-Bold-54" x="879.003906"/>
      <use xlink:href="#DejaVuSerif-Bold-79" x="942.417969"/>
      <use xlink:href="#DejaVuSerif-Bold-70" x="1000.523438"/>
      <use xlink:href="#DejaVuSerif-Bold-65" x="1070.445312"/>
      <use xlink:href="#DejaVuSerif-Bold-73" x="1134.068359"/>
     </g>
    </g>
   </g>
   <g id="matplotlib.axis_2">
    <g id="ytick_1">
     <g id="line2d_11">
      <path d="M 51.035938 392.390061 
L 991.515938 392.390061 
" clip-path="url(#p03e16d6bca)" style="fill: none; stroke-dasharray: 1.85,0.8; stroke-dashoffset: 0; stroke: #b0b0b0; stroke-opacity: 0.3; stroke-width: 0.5"/>
     </g>
     <g id="line2d_12">
      <defs>
       <path id="mdc1f9ac991" d="M 0 0 
L -3.5 0 
" style="stroke: #000000; stroke-width: 0.8"/>
      </defs>
      <g>
       <use xlink:href="#mdc1f9ac991" x="51.035938" y="392.390061" style="stroke: #000000; stroke-width: 0.8"/>
      </g>
     </g>
     <g id="text_12">
      <!-- 0 -->
      <g transform="translate(37.673438 396.189279) scale(0.1 -0.1)">
       <defs>
        <path id="DejaVuSerif-30" d="M 2034 219 
Q 2513 219 2750 744 
Q 2988 1269 2988 2328 
Q 2988 3391 2750 3916 
Q 2513 4441 2034 4441 
Q 1556 4441 1318 3916 
Q 1081 3391 1081 2328 
Q 1081 1269 1318 744 
Q 1556 219 2034 219 
z
M 2034 -91 
Q 1275 -91 848 546 
Q 422 1184 422 2328 
Q 422 3475 848 4112 
Q 1275 4750 2034 4750 
Q 2797 4750 3222 4112 
Q 3647 3475 3647 2328 
Q 3647 1184 3222 546 
Q 2797 -91 2034 -91 
z
" transform="scale(0.015625)"/>
       </defs>
       <use xlink:href="#DejaVuSerif-30"/>
      </g>
     </g>
    </g>
    <g id="ytick_2">
     <g id="line2d_13">
      <path d="M 51.035938 339.116601 
L 991.515938 339.116601 
" clip-path="url(#p03e16d6bca)" style="fill: none; stroke-dasharray: 1.85,0.8; stroke-dashoffset: 0; stroke: #b0b0b0; stroke-opacity: 0.3; stroke-width: 0.5"/>
     </g>
     <g id="line2d_14">
      <g>
       <use xlink:href="#mdc1f9ac991" x="51.035938" y="339.116601" style="stroke: #000000; stroke-width: 0.8"/>
      </g>
     </g>
     <g id="text_13">
      <!-- 25 -->
      <g transform="translate(31.310938 342.91582) scale(0.1 -0.1)">
       <defs>
        <path id="DejaVuSerif-32" d="M 819 3553 
L 469 3553 
L 469 4384 
Q 803 4563 1142 4656 
Q 1481 4750 1806 4750 
Q 2534 4750 2956 4397 
Q 3378 4044 3378 3438 
Q 3378 2753 2422 1800 
Q 2347 1728 2309 1691 
L 1131 513 
L 3078 513 
L 3078 1088 
L 3444 1088 
L 3444 0 
L 434 0 
L 434 341 
L 1850 1753 
Q 2319 2222 2519 2614 
Q 2719 3006 2719 3438 
Q 2719 3909 2473 4175 
Q 2228 4441 1797 4441 
Q 1350 4441 1106 4219 
Q 863 3997 819 3553 
z
" transform="scale(0.015625)"/>
        <path id="DejaVuSerif-35" d="M 3219 4666 
L 3219 4153 
L 1081 4153 
L 1081 2816 
Q 1244 2928 1461 2984 
Q 1678 3041 1947 3041 
Q 2703 3041 3140 2622 
Q 3578 2203 3578 1478 
Q 3578 738 3136 323 
Q 2694 -91 1894 -91 
Q 1572 -91 1234 -12 
Q 897 66 544 225 
L 544 1131 
L 897 1131 
Q 925 688 1179 453 
Q 1434 219 1894 219 
Q 2388 219 2653 544 
Q 2919 869 2919 1478 
Q 2919 2084 2655 2407 
Q 2391 2731 1894 2731 
Q 1613 2731 1398 2631 
Q 1184 2531 1019 2322 
L 750 2322 
L 750 4666 
L 3219 4666 
z
" transform="scale(0.015625)"/>
       </defs>
       <use xlink:href="#DejaVuSerif-32"/>
       <use xlink:href="#DejaVuSerif-35" x="63.623047"/>
      </g>
     </g>
    </g>
    <g id="ytick_3">
     <g id="line2d_15">
      <path d="M 51.035938 285.843142 
L 991.515938 285.843142 
" clip-path="url(#p03e16d6bca)" style="fill: none; stroke-dasharray: 1.85,0.8; stroke-dashoffset: 0; stroke: #b0b0b0; stroke-opacity: 0.3; stroke-width: 0.5"/>
     </g>
     <g id="line2d_16">
      <g>
       <use xlink:href="#mdc1f9ac991" x="51.035938" y="285.843142" style="stroke: #000000; stroke-width: 0.8"/>
      </g>
     </g>
     <g id="text_14">
      <!-- 50 -->
      <g transform="translate(31.310938 289.642361) scale(0.1 -0.1)">
       <use xlink:href="#DejaVuSerif-35"/>
       <use xlink:href="#DejaVuSerif-30" x="63.623047"/>
      </g>
     </g>
    </g>
    <g id="ytick_4">
     <g id="line2d_17">
      <path d="M 51.035938 232.569682 
L 991.515938 232.569682 
" clip-path="url(#p03e16d6bca)" style="fill: none; stroke-dasharray: 1.85,0.8; stroke-dashoffset: 0; stroke: #b0b0b0; stroke-opacity: 0.3; stroke-width: 0.5"/>
     </g>
     <g id="line2d_18">
      <g>
       <use xlink:href="#mdc1f9ac991" x="51.035938" y="232.569682" style="stroke: #000000; stroke-width: 0.8"/>
      </g>
     </g>
     <g id="text_15">
      <!-- 75 -->
      <g transform="translate(31.310938 236.368901) scale(0.1 -0.1)">
       <defs>
        <path id="DejaVuSerif-37" d="M 3609 4347 
L 1784 0 
L 1319 0 
L 3059 4153 
L 903 4153 
L 903 3578 
L 538 3578 
L 538 4666 
L 3609 4666 
L 3609 4347 
z
" transform="scale(0.015625)"/>
       </defs>
       <use xlink:href="#DejaVuSerif-37"/>
       <use xlink:href="#DejaVuSerif-35" x="63.623047"/>
      </g>
     </g>
    </g>
    <g id="ytick_5">
     <g id="line2d_19">
      <path d="M 51.035938 179.296223 
L 991.515938 179.296223 
" clip-path="url(#p03e16d6bca)" style="fill: none; stroke-dasharray: 1.85,0.8; stroke-dashoffset: 0; stroke: #b0b0b0; stroke-opacity: 0.3; stroke-width: 0.5"/>
     </g>
     <g id="line2d_20">
      <g>
       <use xlink:href="#mdc1f9ac991" x="51.035938" y="179.296223" style="stroke: #000000; stroke-width: 0.8"/>
      </g>
     </g>
     <g id="text_16">
      <!-- 100 -->
      <g transform="translate(24.948438 183.095442) scale(0.1 -0.1)">
       <defs>
        <path id="DejaVuSerif-31" d="M 909 0 
L 909 331 
L 1722 331 
L 1722 4213 
L 781 3603 
L 781 4013 
L 1919 4750 
L 2350 4750 
L 2350 331 
L 3163 331 
L 3163 0 
L 909 0 
z
" transform="scale(0.015625)"/>
       </defs>
       <use xlink:href="#DejaVuSerif-31"/>
       <use xlink:href="#DejaVuSerif-30" x="63.623047"/>
       <use xlink:href="#DejaVuSerif-30" x="127.246094"/>
      </g>
     </g>
    </g>
    <g id="ytick_6">
     <g id="line2d_21">
      <path d="M 51.035938 126.022764 
L 991.515938 126.022764 
" clip-path="url(#p03e16d6bca)" style="fill: none; stroke-dasharray: 1.85,0.8; stroke-dashoffset: 0; stroke: #b0b0b0; stroke-opacity: 0.3; stroke-width: 0.5"/>
     </g>
     <g id="line2d_22">
      <g>
       <use xlink:href="#mdc1f9ac991" x="51.035938" y="126.022764" style="stroke: #000000; stroke-width: 0.8"/>
      </g>
     </g>
     <g id="text_17">
      <!-- 125 -->
      <g transform="translate(24.948438 129.821982) scale(0.1 -0.1)">
       <use xlink:href="#DejaVuSerif-31"/>
       <use xlink:href="#DejaVuSerif-32" x="63.623047"/>
       <use xlink:href="#DejaVuSerif-35" x="127.246094"/>
      </g>
     </g>
    </g>
    <g id="ytick_7">
     <g id="line2d_23">
      <path d="M 51.035938 72.749304 
L 991.515938 72.749304 
" clip-path="url(#p03e16d6bca)" style="fill: none; stroke-dasharray: 1.85,0.8; stroke-dashoffset: 0; stroke: #b0b0b0; stroke-opacity: 0.3; stroke-width: 0.5"/>
     </g>
     <g id="line2d_24">
      <g>
       <use xlink:href="#mdc1f9ac991" x="51.035938" y="72.749304" style="stroke: #000000; stroke-width: 0.8"/>
      </g>
     </g>
     <g id="text_18">
      <!-- 150 -->
      <g transform="translate(24.948438 76.548523) scale(0.1 -0.1)">
       <use xlink:href="#DejaVuSerif-31"/>
       <use xlink:href="#DejaVuSerif-35" x="63.623047"/>
       <use xlink:href="#DejaVuSerif-30" x="127.246094"/>
      </g>
     </g>
    </g>
    <g id="text_19">
     <!-- Average Total Sentences -->
     <g transform="translate(17.837813 335.892779) rotate(-90) scale(0.14 -0.14)">
      <defs>
       <path id="DejaVuSerif-Bold-41" d="M -50 0 
L -50 378 
L 331 378 
L 2088 4666 
L 2834 4666 
L 4594 378 
L 5038 378 
L 5038 0 
L 2853 0 
L 2853 378 
L 3309 378 
L 2925 1331 
L 1172 1331 
L 781 378 
L 1338 378 
L 1338 0 
L -50 0 
z
M 1325 1709 
L 2772 1709 
L 2053 3494 
L 1325 1709 
z
" transform="scale(0.015625)"/>
       <path id="DejaVuSerif-Bold-76" d="M 1428 0 
L 250 2944 
L -116 2944 
L -116 3322 
L 1791 3322 
L 1791 2944 
L 1388 2944 
L 2228 844 
L 3066 2944 
L 2631 2944 
L 2631 3322 
L 3878 3322 
L 3878 2944 
L 3494 2944 
L 2316 0 
L 1428 0 
z
" transform="scale(0.015625)"/>
       <path id="DejaVuSerif-Bold-67" d="M 3853 2944 
L 3853 44 
Q 3853 -656 3354 -1039 
Q 2856 -1422 1947 -1422 
Q 1616 -1422 1275 -1370 
Q 934 -1319 575 -1216 
L 575 -422 
L 928 -422 
Q 975 -750 1192 -909 
Q 1409 -1069 1813 -1069 
Q 2325 -1069 2536 -823 
Q 2747 -578 2747 44 
L 2747 422 
Q 2606 163 2367 36 
Q 2128 -91 1778 -91 
Q 1072 -91 667 378 
Q 263 847 263 1663 
Q 263 2481 667 2947 
Q 1072 3413 1778 3413 
Q 2128 3413 2367 3286 
Q 2606 3159 2747 2900 
L 2747 3322 
L 4325 3322 
L 4325 2944 
L 3853 2944 
z
M 2747 1825 
Q 2747 2406 2597 2665 
Q 2447 2925 2119 2925 
Q 1775 2925 1636 2651 
Q 1497 2378 1497 1663 
Q 1497 947 1637 672 
Q 1778 397 2119 397 
Q 2447 397 2597 656 
Q 2747 916 2747 1497 
L 2747 1825 
z
" transform="scale(0.015625)"/>
       <path id="DejaVuSerif-Bold-53" d="M 494 225 
L 494 1331 
L 891 1331 
Q 981 806 1318 547 
Q 1656 288 2253 288 
Q 2738 288 2991 472 
Q 3244 656 3244 1013 
Q 3244 1294 3072 1450 
Q 2900 1606 2363 1741 
L 1663 1913 
Q 978 2088 700 2398 
Q 422 2709 422 3284 
Q 422 3978 883 4364 
Q 1344 4750 2175 4750 
Q 2584 4750 3026 4681 
Q 3469 4613 3944 4475 
L 3944 3444 
L 3547 3444 
Q 3456 3925 3150 4148 
Q 2844 4372 2278 4372 
Q 1816 4372 1580 4211 
Q 1344 4050 1344 3731 
Q 1344 3441 1506 3289 
Q 1669 3138 2303 2975 
L 3003 2803 
Q 3653 2641 3945 2297 
Q 4238 1953 4238 1350 
Q 4238 644 3750 276 
Q 3263 -91 2316 -91 
Q 1859 -91 1409 -12 
Q 959 66 494 225 
z
" transform="scale(0.015625)"/>
       <path id="DejaVuSerif-Bold-6e" d="M 219 0 
L 219 378 
L 691 378 
L 691 2944 
L 219 2944 
L 219 3322 
L 1797 3322 
L 1797 2853 
Q 1997 3150 2253 3281 
Q 2509 3413 2900 3413 
Q 3459 3413 3745 3083 
Q 4031 2753 4031 2113 
L 4031 378 
L 4506 378 
L 4506 0 
L 2522 0 
L 2522 378 
L 2925 378 
L 2925 2144 
Q 2925 2566 2817 2730 
Q 2709 2894 2444 2894 
Q 2109 2894 1953 2648 
Q 1797 2403 1797 1869 
L 1797 378 
L 2203 378 
L 2203 0 
L 219 0 
z
" transform="scale(0.015625)"/>
      </defs>
      <use xlink:href="#DejaVuSerif-Bold-41"/>
      <use xlink:href="#DejaVuSerif-Bold-76" x="73.587891"/>
      <use xlink:href="#DejaVuSerif-Bold-65" x="131.693359"/>
      <use xlink:href="#DejaVuSerif-Bold-72" x="195.316406"/>
      <use xlink:href="#DejaVuSerif-Bold-61" x="248.001953"/>
      <use xlink:href="#DejaVuSerif-Bold-67" x="312.796875"/>
      <use xlink:href="#DejaVuSerif-Bold-65" x="382.71875"/>
      <use xlink:href="#DejaVuSerif-Bold-20" x="446.341797"/>
      <use xlink:href="#DejaVuSerif-Bold-54" x="481.15625"/>
      <use xlink:href="#DejaVuSerif-Bold-6f" x="544.070312"/>
      <use xlink:href="#DejaVuSerif-Bold-74" x="610.769531"/>
      <use xlink:href="#DejaVuSerif-Bold-61" x="656.960938"/>
      <use xlink:href="#DejaVuSerif-Bold-6c" x="721.755859"/>
      <use xlink:href="#DejaVuSerif-Bold-20" x="759.744141"/>
      <use xlink:href="#DejaVuSerif-Bold-53" x="794.558594"/>
      <use xlink:href="#DejaVuSerif-Bold-65" x="866.775391"/>
      <use xlink:href="#DejaVuSerif-Bold-6e" x="930.398438"/>
      <use xlink:href="#DejaVuSerif-Bold-74" x="1003.103516"/>
      <use xlink:href="#DejaVuSerif-Bold-65" x="1049.294922"/>
      <use xlink:href="#DejaVuSerif-Bold-6e" x="1112.917969"/>
      <use xlink:href="#DejaVuSerif-Bold-63" x="1185.623047"/>
      <use xlink:href="#DejaVuSerif-Bold-65" x="1246.511719"/>
      <use xlink:href="#DejaVuSerif-Bold-73" x="1310.134766"/>
     </g>
    </g>
   </g>
   <g id="LineCollection_1">
    <path d="M 128.682245 384.292495 
L 128.682245 315.676279 
" clip-path="url(#p03e16d6bca)" style="fill: none; stroke: #000000; stroke-width: 1.2"/>
    <path d="M 215.925288 393.45553 
L 215.925288 318.872687 
" clip-path="url(#p03e16d6bca)" style="fill: none; stroke: #000000; stroke-width: 1.2"/>
    <path d="M 303.168331 390.259122 
L 303.168331 341.673727 
" clip-path="url(#p03e16d6bca)" style="fill: none; stroke: #000000; stroke-width: 1.2"/>
    <path d="M 390.411373 371.933052 
L 390.411373 176.739097 
" clip-path="url(#p03e16d6bca)" style="fill: none; stroke: #000000; stroke-width: 1.2"/>
    <path d="M 477.654416 418.600603 
L 477.654416 209.768642 
" clip-path="url(#p03e16d6bca)" style="fill: none; stroke: #000000; stroke-width: 1.2"/>
    <path d="M 564.897459 410.503037 
L 564.897459 233.635152 
" clip-path="url(#p03e16d6bca)" style="fill: none; stroke: #000000; stroke-width: 1.2"/>
    <path d="M 652.140502 422.862479 
L 652.140502 57.619642 
" clip-path="url(#p03e16d6bca)" style="fill: none; stroke: #000000; stroke-width: 1.2"/>
    <path d="M 739.383544 381.735369 
L 739.383544 317.807217 
" clip-path="url(#p03e16d6bca)" style="fill: none; stroke: #000000; stroke-width: 1.2"/>
    <path d="M 826.626587 389.832935 
L 826.626587 221.488803 
" clip-path="url(#p03e16d6bca)" style="fill: none; stroke: #000000; stroke-width: 1.2"/>
    <path d="M 913.86963 400.70072 
L 913.86963 58.898205 
" clip-path="url(#p03e16d6bca)" style="fill: none; stroke: #000000; stroke-width: 1.2"/>
   </g>
   <g id="line2d_25">
    <defs>
     <path id="m0fb1d3212d" d="M 5 0 
L -5 -0 
" style="stroke: #000000"/>
    </defs>
    <g clip-path="url(#p03e16d6bca)">
     <use xlink:href="#m0fb1d3212d" x="128.682245" y="384.292495" style="stroke: #000000"/>
     <use xlink:href="#m0fb1d3212d" x="215.925288" y="393.45553" style="stroke: #000000"/>
     <use xlink:href="#m0fb1d3212d" x="303.168331" y="390.259122" style="stroke: #000000"/>
     <use xlink:href="#m0fb1d3212d" x="390.411373" y="371.933052" style="stroke: #000000"/>
     <use xlink:href="#m0fb1d3212d" x="477.654416" y="418.600603" style="stroke: #000000"/>
     <use xlink:href="#m0fb1d3212d" x="564.897459" y="410.503037" style="stroke: #000000"/>
     <use xlink:href="#m0fb1d3212d" x="652.140502" y="422.862479" style="stroke: #000000"/>
     <use xlink:href="#m0fb1d3212d" x="739.383544" y="381.735369" style="stroke: #000000"/>
     <use xlink:href="#m0fb1d3212d" x="826.626587" y="389.832935" style="stroke: #000000"/>
     <use xlink:href="#m0fb1d3212d" x="913.86963" y="400.70072" style="stroke: #000000"/>
    </g>
   </g>
   <g id="line2d_26">
    <g clip-path="url(#p03e16d6bca)">
     <use xlink:href="#m0fb1d3212d" x="128.682245" y="315.676279" style="stroke: #000000"/>
     <use xlink:href="#m0fb1d3212d" x="215.925288" y="318.872687" style="stroke: #000000"/>
     <use xlink:href="#m0fb1d3212d" x="303.168331" y="341.673727" style="stroke: #000000"/>
     <use xlink:href="#m0fb1d3212d" x="390.411373" y="176.739097" style="stroke: #000000"/>
     <use xlink:href="#m0fb1d3212d" x="477.654416" y="209.768642" style="stroke: #000000"/>
     <use xlink:href="#m0fb1d3212d" x="564.897459" y="233.635152" style="stroke: #000000"/>
     <use xlink:href="#m0fb1d3212d" x="652.140502" y="57.619642" style="stroke: #000000"/>
     <use xlink:href="#m0fb1d3212d" x="739.383544" y="317.807217" style="stroke: #000000"/>
     <use xlink:href="#m0fb1d3212d" x="826.626587" y="221.488803" style="stroke: #000000"/>
     <use xlink:href="#m0fb1d3212d" x="913.86963" y="58.898205" style="stroke: #000000"/>
    </g>
   </g>
   <g id="patch_13">
    <path d="M 51.035938 441.124621 
L 51.035938 39.3575 
" style="fill: none; stroke: #000000; stroke-width: 0.8; stroke-linejoin: miter; stroke-linecap: square"/>
   </g>
   <g id="patch_14">
    <path d="M 51.035938 441.124621 
L 991.515938 441.124621 
" style="fill: none; stroke: #000000; stroke-width: 0.8; stroke-linejoin: miter; stroke-linecap: square"/>
   </g>
   <g id="text_20">
    <!-- 19.9 -->
    <g transform="translate(117.722636 345.98173) scale(0.09 -0.09)">
     <defs>
      <path id="DejaVuSerif-Bold-31" d="M 878 0 
L 878 378 
L 1753 378 
L 1753 4153 
L 781 3578 
L 781 4044 
L 1953 4750 
L 2938 4750 
L 2938 378 
L 3816 378 
L 3816 0 
L 878 0 
z
" transform="scale(0.015625)"/>
      <path id="DejaVuSerif-Bold-39" d="M 2181 4384 
Q 1859 4384 1723 4111 
Q 1588 3838 1588 3163 
Q 1588 2488 1723 2214 
Q 1859 1941 2181 1941 
Q 2503 1941 2640 2214 
Q 2778 2488 2778 3163 
Q 2778 3838 2640 4111 
Q 2503 4384 2181 4384 
z
M 2878 1900 
Q 2672 1734 2420 1651 
Q 2169 1569 1875 1569 
Q 1163 1569 755 1986 
Q 347 2403 347 3138 
Q 347 3913 803 4331 
Q 1259 4750 2106 4750 
Q 3063 4750 3556 4172 
Q 4050 3594 4050 2478 
Q 4050 1206 3503 557 
Q 2956 -91 1881 -91 
Q 1600 -91 1278 -44 
Q 956 3 588 97 
L 588 922 
L 966 922 
Q 1044 603 1261 439 
Q 1478 275 1825 275 
Q 2375 275 2625 658 
Q 2875 1041 2878 1900 
z
" transform="scale(0.015625)"/>
      <path id="DejaVuSerif-Bold-2e" d="M 519 506 
Q 519 750 694 925 
Q 869 1100 1113 1100 
Q 1359 1100 1534 925 
Q 1709 750 1709 506 
Q 1709 259 1534 84 
Q 1359 -91 1113 -91 
Q 869 -91 694 84 
Q 519 259 519 506 
z
" transform="scale(0.015625)"/>
     </defs>
     <use xlink:href="#DejaVuSerif-Bold-31"/>
     <use xlink:href="#DejaVuSerif-Bold-39" x="69.580078"/>
     <use xlink:href="#DejaVuSerif-Bold-2e" x="139.160156"/>
     <use xlink:href="#DejaVuSerif-Bold-39" x="173.974609"/>
    </g>
   </g>
   <g id="text_21">
    <!-- 17.0 -->
    <g transform="translate(204.965679 352.161451) scale(0.09 -0.09)">
     <defs>
      <path id="DejaVuSerif-Bold-37" d="M 3922 3872 
L 1997 0 
L 1363 0 
L 3238 3781 
L 934 3781 
L 934 3150 
L 506 3150 
L 506 4666 
L 3922 4666 
L 3922 3872 
z
" transform="scale(0.015625)"/>
      <path id="DejaVuSerif-Bold-30" d="M 2228 275 
Q 2603 275 2742 615 
Q 2881 956 2881 2328 
Q 2881 3691 2742 4037 
Q 2603 4384 2228 4384 
Q 1853 4384 1714 4043 
Q 1575 3703 1575 2328 
Q 1575 956 1714 615 
Q 1853 275 2228 275 
z
M 2228 -91 
Q 1294 -91 797 532 
Q 300 1156 300 2328 
Q 300 3500 797 4125 
Q 1294 4750 2228 4750 
Q 3159 4750 3656 4125 
Q 4153 3500 4153 2328 
Q 4153 1156 3656 532 
Q 3159 -91 2228 -91 
z
" transform="scale(0.015625)"/>
     </defs>
     <use xlink:href="#DejaVuSerif-Bold-31"/>
     <use xlink:href="#DejaVuSerif-Bold-37" x="69.580078"/>
     <use xlink:href="#DejaVuSerif-Bold-2e" x="139.160156"/>
     <use xlink:href="#DejaVuSerif-Bold-30" x="173.974609"/>
    </g>
   </g>
   <g id="text_22">
    <!-- 12.4 -->
    <g transform="translate(292.208721 361.963768) scale(0.09 -0.09)">
     <defs>
      <path id="DejaVuSerif-Bold-32" d="M 844 3513 
L 469 3513 
L 469 4519 
Q 850 4634 1223 4692 
Q 1597 4750 1978 4750 
Q 2869 4750 3367 4386 
Q 3866 4022 3866 3372 
Q 3866 2909 3591 2542 
Q 3316 2175 2541 1672 
L 1241 819 
L 3450 819 
L 3450 1369 
L 3878 1369 
L 3878 0 
L 428 0 
L 428 763 
L 1119 1241 
Q 2003 1850 2297 2278 
Q 2591 2706 2591 3278 
Q 2591 3819 2367 4101 
Q 2144 4384 1716 4384 
Q 1347 4384 1125 4161 
Q 903 3938 844 3513 
z
" transform="scale(0.015625)"/>
      <path id="DejaVuSerif-Bold-34" d="M 4084 0 
L 1516 0 
L 1516 378 
L 2209 378 
L 2209 1228 
L 263 1228 
L 263 1588 
L 2216 4750 
L 3391 4750 
L 3391 1631 
L 4191 1631 
L 4191 1228 
L 3391 1228 
L 3391 378 
L 4084 378 
L 4084 0 
z
M 2209 1631 
L 2209 3897 
L 819 1631 
L 2209 1631 
z
" transform="scale(0.015625)"/>
     </defs>
     <use xlink:href="#DejaVuSerif-Bold-31"/>
     <use xlink:href="#DejaVuSerif-Bold-32" x="69.580078"/>
     <use xlink:href="#DejaVuSerif-Bold-2e" x="139.160156"/>
     <use xlink:href="#DejaVuSerif-Bold-34" x="173.974609"/>
    </g>
   </g>
   <g id="text_23">
    <!-- 55.4 -->
    <g transform="translate(379.451764 270.333417) scale(0.09 -0.09)">
     <defs>
      <path id="DejaVuSerif-Bold-35" d="M 3609 4666 
L 3609 3847 
L 1113 3847 
L 1113 2822 
Q 1319 2981 1572 3062 
Q 1825 3144 2106 3144 
Q 2969 3144 3469 2708 
Q 3969 2272 3969 1522 
Q 3969 759 3469 334 
Q 2969 -91 2069 -91 
Q 1688 -91 1311 -28 
Q 934 34 525 166 
L 525 1184 
L 900 1184 
Q 919 725 1139 500 
Q 1359 275 1791 275 
Q 2250 275 2472 583 
Q 2694 891 2694 1522 
Q 2694 2144 2476 2451 
Q 2259 2759 1819 2759 
Q 1581 2759 1395 2661 
Q 1209 2563 1050 2356 
L 738 2356 
L 738 4666 
L 3609 4666 
z
" transform="scale(0.015625)"/>
     </defs>
     <use xlink:href="#DejaVuSerif-Bold-35"/>
     <use xlink:href="#DejaVuSerif-Bold-35" x="69.580078"/>
     <use xlink:href="#DejaVuSerif-Bold-2e" x="139.160156"/>
     <use xlink:href="#DejaVuSerif-Bold-34" x="173.974609"/>
    </g>
   </g>
   <g id="text_24">
    <!-- 36.7 -->
    <g transform="translate(466.694807 310.181965) scale(0.09 -0.09)">
     <defs>
      <path id="DejaVuSerif-Bold-33" d="M 550 4531 
Q 963 4641 1350 4695 
Q 1738 4750 2106 4750 
Q 2950 4750 3401 4448 
Q 3853 4147 3853 3584 
Q 3853 3163 3593 2900 
Q 3334 2638 2834 2547 
Q 3444 2450 3744 2131 
Q 4044 1813 4044 1259 
Q 4044 606 3526 257 
Q 3009 -91 2028 -91 
Q 1659 -91 1267 -28 
Q 875 34 447 159 
L 447 1184 
L 825 1184 
Q 859 741 1103 508 
Q 1347 275 1778 275 
Q 2253 275 2512 539 
Q 2772 803 2772 1288 
Q 2772 1794 2501 2069 
Q 2231 2344 1734 2344 
L 1528 2344 
L 1528 2719 
L 1691 2719 
Q 2150 2719 2381 2931 
Q 2613 3144 2613 3566 
Q 2613 3963 2395 4173 
Q 2178 4384 1772 4384 
Q 1403 4384 1187 4182 
Q 972 3981 928 3597 
L 550 3597 
L 550 4531 
z
" transform="scale(0.015625)"/>
      <path id="DejaVuSerif-Bold-36" d="M 1575 2766 
Q 1778 2928 2029 3009 
Q 2281 3091 2578 3091 
Q 3294 3091 3701 2672 
Q 4109 2253 4109 1522 
Q 4109 750 3650 329 
Q 3191 -91 2344 -91 
Q 1388 -91 895 486 
Q 403 1063 403 2181 
Q 403 3453 950 4101 
Q 1497 4750 2572 4750 
Q 2853 4750 3175 4703 
Q 3497 4656 3866 4563 
L 3866 3738 
L 3488 3738 
Q 3409 4056 3192 4220 
Q 2975 4384 2631 4384 
Q 2075 4384 1826 4003 
Q 1578 3622 1575 2766 
z
M 2272 275 
Q 2594 275 2731 548 
Q 2869 822 2869 1497 
Q 2869 2172 2731 2445 
Q 2594 2719 2272 2719 
Q 1950 2719 1814 2445 
Q 1678 2172 1678 1497 
Q 1678 822 1814 548 
Q 1950 275 2272 275 
z
" transform="scale(0.015625)"/>
     </defs>
     <use xlink:href="#DejaVuSerif-Bold-33"/>
     <use xlink:href="#DejaVuSerif-Bold-36" x="69.580078"/>
     <use xlink:href="#DejaVuSerif-Bold-2e" x="139.160156"/>
     <use xlink:href="#DejaVuSerif-Bold-37" x="173.974609"/>
    </g>
   </g>
   <g id="text_25">
    <!-- 33.0 -->
    <g transform="translate(553.937849 318.066437) scale(0.09 -0.09)">
     <use xlink:href="#DejaVuSerif-Bold-33"/>
     <use xlink:href="#DejaVuSerif-Bold-33" x="69.580078"/>
     <use xlink:href="#DejaVuSerif-Bold-2e" x="139.160156"/>
     <use xlink:href="#DejaVuSerif-Bold-30" x="173.974609"/>
    </g>
   </g>
   <g id="text_26">
    <!-- 71.4 -->
    <g transform="translate(641.180892 236.238403) scale(0.09 -0.09)">
     <use xlink:href="#DejaVuSerif-Bold-37"/>
     <use xlink:href="#DejaVuSerif-Bold-31" x="69.580078"/>
     <use xlink:href="#DejaVuSerif-Bold-2e" x="139.160156"/>
     <use xlink:href="#DejaVuSerif-Bold-34" x="173.974609"/>
    </g>
   </g>
   <g id="text_27">
    <!-- 20.0 -->
    <g transform="translate(728.423935 345.768636) scale(0.09 -0.09)">
     <use xlink:href="#DejaVuSerif-Bold-32"/>
     <use xlink:href="#DejaVuSerif-Bold-30" x="69.580078"/>
     <use xlink:href="#DejaVuSerif-Bold-2e" x="139.160156"/>
     <use xlink:href="#DejaVuSerif-Bold-30" x="173.974609"/>
    </g>
   </g>
   <g id="text_28">
    <!-- 40.7 -->
    <g transform="translate(815.666977 301.658212) scale(0.09 -0.09)">
     <use xlink:href="#DejaVuSerif-Bold-34"/>
     <use xlink:href="#DejaVuSerif-Bold-30" x="69.580078"/>
     <use xlink:href="#DejaVuSerif-Bold-2e" x="139.160156"/>
     <use xlink:href="#DejaVuSerif-Bold-37" x="173.974609"/>
    </g>
   </g>
   <g id="text_29">
    <!-- 76.3 -->
    <g transform="translate(902.91002 225.796805) scale(0.09 -0.09)">
     <use xlink:href="#DejaVuSerif-Bold-37"/>
     <use xlink:href="#DejaVuSerif-Bold-36" x="69.580078"/>
     <use xlink:href="#DejaVuSerif-Bold-2e" x="139.160156"/>
     <use xlink:href="#DejaVuSerif-Bold-33" x="173.974609"/>
    </g>
   </g>
   <g id="text_30">
    <!-- Average Sentence Count by Character Role Type -->
    <g transform="translate(305.179688 19.3575) scale(0.16 -0.16)">
     <defs>
      <path id="DejaVuSerif-Bold-75" d="M 3963 3322 
L 3963 378 
L 4434 378 
L 4434 0 
L 2853 0 
L 2853 469 
Q 2656 172 2400 40 
Q 2144 -91 1753 -91 
Q 1194 -91 908 239 
Q 622 569 622 1209 
L 622 2944 
L 147 2944 
L 147 3322 
L 1728 3322 
L 1728 1381 
Q 1728 763 1831 595 
Q 1934 428 2209 428 
Q 2544 428 2698 675 
Q 2853 922 2853 1459 
L 2853 2944 
L 2450 2944 
L 2450 3322 
L 3963 3322 
z
" transform="scale(0.015625)"/>
      <path id="DejaVuSerif-Bold-62" d="M 622 378 
L 622 4488 
L 147 4488 
L 147 4863 
L 1728 4863 
L 1728 2900 
Q 1869 3159 2106 3286 
Q 2344 3413 2694 3413 
Q 3403 3413 3811 2945 
Q 4219 2478 4219 1663 
Q 4219 847 3811 378 
Q 3403 -91 2694 -91 
Q 2344 -91 2106 36 
Q 1869 163 1728 422 
L 1728 0 
L 147 0 
L 147 378 
L 622 378 
z
M 1728 1497 
Q 1728 916 1876 656 
Q 2025 397 2356 397 
Q 2697 397 2836 672 
Q 2975 947 2975 1663 
Q 2975 2378 2836 2651 
Q 2697 2925 2356 2925 
Q 2025 2925 1876 2665 
Q 1728 2406 1728 1825 
L 1728 1497 
z
" transform="scale(0.015625)"/>
     </defs>
     <use xlink:href="#DejaVuSerif-Bold-41"/>
     <use xlink:href="#DejaVuSerif-Bold-76" x="73.587891"/>
     <use xlink:href="#DejaVuSerif-Bold-65" x="131.693359"/>
     <use xlink:href="#DejaVuSerif-Bold-72" x="195.316406"/>
     <use xlink:href="#DejaVuSerif-Bold-61" x="248.001953"/>
     <use xlink:href="#DejaVuSerif-Bold-67" x="312.796875"/>
     <use xlink:href="#DejaVuSerif-Bold-65" x="382.71875"/>
     <use xlink:href="#DejaVuSerif-Bold-20" x="446.341797"/>
     <use xlink:href="#DejaVuSerif-Bold-53" x="481.15625"/>
     <use xlink:href="#DejaVuSerif-Bold-65" x="553.373047"/>
     <use xlink:href="#DejaVuSerif-Bold-6e" x="616.996094"/>
     <use xlink:href="#DejaVuSerif-Bold-74" x="689.701172"/>
     <use xlink:href="#DejaVuSerif-Bold-65" x="735.892578"/>
     <use xlink:href="#DejaVuSerif-Bold-6e" x="799.515625"/>
     <use xlink:href="#DejaVuSerif-Bold-63" x="872.220703"/>
     <use xlink:href="#DejaVuSerif-Bold-65" x="933.109375"/>
     <use xlink:href="#DejaVuSerif-Bold-20" x="996.732422"/>
     <use xlink:href="#DejaVuSerif-Bold-43" x="1031.546875"/>
     <use xlink:href="#DejaVuSerif-Bold-6f" x="1111.136719"/>
     <use xlink:href="#DejaVuSerif-Bold-75" x="1177.835938"/>
     <use xlink:href="#DejaVuSerif-Bold-6e" x="1250.541016"/>
     <use xlink:href="#DejaVuSerif-Bold-74" x="1323.246094"/>
     <use xlink:href="#DejaVuSerif-Bold-20" x="1369.4375"/>
     <use xlink:href="#DejaVuSerif-Bold-62" x="1404.251953"/>
     <use xlink:href="#DejaVuSerif-Bold-79" x="1474.173828"/>
     <use xlink:href="#DejaVuSerif-Bold-20" x="1532.279297"/>
     <use xlink:href="#DejaVuSerif-Bold-43" x="1567.09375"/>
     <use xlink:href="#DejaVuSerif-Bold-68" x="1646.683594"/>
     <use xlink:href="#DejaVuSerif-Bold-61" x="1719.388672"/>
     <use xlink:href="#DejaVuSerif-Bold-72" x="1784.183594"/>
     <use xlink:href="#DejaVuSerif-Bold-61" x="1836.869141"/>
     <use xlink:href="#DejaVuSerif-Bold-63" x="1901.664062"/>
     <use xlink:href="#DejaVuSerif-Bold-74" x="1962.552734"/>
     <use xlink:href="#DejaVuSerif-Bold-65" x="2008.744141"/>
     <use xlink:href="#DejaVuSerif-Bold-72" x="2072.367188"/>
     <use xlink:href="#DejaVuSerif-Bold-20" x="2125.052734"/>
     <use xlink:href="#DejaVuSerif-Bold-52" x="2159.867188"/>
     <use xlink:href="#DejaVuSerif-Bold-6f" x="2242.972656"/>
     <use xlink:href="#DejaVuSerif-Bold-6c" x="2309.671875"/>
     <use xlink:href="#DejaVuSerif-Bold-65" x="2347.660156"/>
     <use xlink:href="#DejaVuSerif-Bold-20" x="2411.283203"/>
     <use xlink:href="#DejaVuSerif-Bold-54" x="2446.097656"/>
     <use xlink:href="#DejaVuSerif-Bold-79" x="2509.511719"/>
     <use xlink:href="#DejaVuSerif-Bold-70" x="2567.617188"/>
     <use xlink:href="#DejaVuSerif-Bold-65" x="2637.539062"/>
    </g>
   </g>
  </g>
 </g>
 <defs>
  <clipPath id="p03e16d6bca">
   <rect x="51.035938" y="39.3575" width="940.48" height="401.767121"/>
  </clipPath>
 </defs>
</svg>
